<?xml version="1.0" encoding="UTF-8"?> <svg xmlns="http://www.w3.org/2000/svg" xmlns:xlink="http://www.w3.org/1999/xlink" id="Layer_1" data-name="Layer 1" viewBox="0 0 348.55 224.85"><defs><style> .cls-1 { fill: #a8875c; } .cls-1, .cls-2, .cls-3, .cls-4, .cls-5, .cls-6, .cls-7, .cls-8, .cls-9, .cls-10, .cls-11, .cls-12, .cls-13, .cls-14, .cls-15, .cls-16 { stroke-width: 0px; } .cls-17 { fill: #d55834; stroke: #221f1f; stroke-width: .29px; } .cls-2 { fill: url(#linear-gradient); } .cls-3, .cls-18 { fill: #6c5636; } .cls-4 { fill: #221f1f; } .cls-5 { fill: #8ca16a; } .cls-6 { fill: #363233; } .cls-7 { fill: #8ba069; } .cls-19, .cls-18 { stroke: #a8875c; stroke-linecap: round; } .cls-19, .cls-18, .cls-20 { stroke-width: .59px; } .cls-19, .cls-21, .cls-22 { fill: none; } .cls-8 { fill: #9b9c9f; } .cls-9 { fill: #38421f; } .cls-23 { stroke: #9b9c9f; stroke-width: 1.26px; } .cls-23, .cls-16 { fill: #fff; } .cls-10 { fill: #384220; } .cls-11 { fill: #6c5635; } .cls-12 { fill: #626467; } .cls-20 { fill: #b04826; stroke: #c46c55; } .cls-13 { fill: url(#linear-gradient-2); } .cls-14 { fill: url(#linear-gradient-3); } .cls-21 { stroke: #d05732; stroke-width: .27px; } .cls-15 { fill: #e8e7e6; } .cls-24 { fill: #231f20; font-family: ArialMT, Arial; font-size: 7px; } .cls-22 { stroke: #947b51; stroke-width: .29px; } </style><linearGradient id="linear-gradient" x1="81.19" y1="65.45" x2="39.62" y2="173.18" gradientUnits="userSpaceOnUse"><stop offset="0" stop-color="#446630"></stop><stop offset=".29" stop-color="#466931"></stop><stop offset=".55" stop-color="#4e7434"></stop><stop offset=".79" stop-color="#5c8639"></stop><stop offset="1" stop-color="#6c9c40"></stop></linearGradient><linearGradient id="linear-gradient-2" x1="154.89" y1="138.29" x2="173.04" y2="193.92" xlink:href="#linear-gradient"></linearGradient><linearGradient id="linear-gradient-3" x1="240.42" y1="147.25" x2="246.92" y2="187.75" gradientTransform="translate(42.57 -42.03) rotate(9.41)" gradientUnits="userSpaceOnUse"><stop offset="0" stop-color="#436630"></stop><stop offset=".29" stop-color="#456930"></stop><stop offset=".55" stop-color="#4d7430"></stop><stop offset=".79" stop-color="#5b8630"></stop><stop offset="1" stop-color="#6c9c31"></stop></linearGradient></defs><g><path class="cls-15" d="M141.09,5.11c-2.43.71-14.03,6.19-14.95,6.66s-.37-2.58-.37-2.58l5.32-4.57,7.76-.52s.89-.04,1.22.03,1.04.49,1.04.49l-.02.49Z"></path><path class="cls-8" d="M126.78,10.92c1.4-.49,6.15-2.88,12.4-5.77,1.53-.71,3.38-.52.15,2.38-2.66,2.39-3.78,6-3.78,6l-3.41-.59-4.72,1.07-3.02-1.07,2.38-2.02Z"></path><path class="cls-23" d="M113.36,26.13c-6.33,8.55-8.77,37.87-7.71,43.49s3.19,15.28,3.19,15.28l5.74,1.48,10.58-8.95,12.27-23.21,3.9-5.72-1.54-14.96-26.43-7.42Z"></path><g><path class="cls-12" d="M101.53,80.5c.12.27.08.63.08.9,0,.31-.08.55-.12.86-.04.63.31,1.76,1.14,1.57.67-.2.97-1.36.42-1.79-.27-.24-.24-.52-.2-.91,0-.16.04-.54.04-.66"></path><path class="cls-4" d="M101.25,80.52c.13.33.09.76.05,1.11-.04.31-.13.6-.1.92.05.47.23,1.01.65,1.27.47.29,1.15.19,1.49-.25.28-.37.4-.98.13-1.39-.08-.12-.21-.19-.28-.32-.08-.14-.08-.3-.07-.46.02-.3.05-.61.06-.91,0-.17-.58-.19-.58-.03,0,.22-.02.44-.04.66-.02.26-.07.54.07.78.06.1.15.17.23.25.07.08.12.18.15.28.06.21.04.45-.02.66s-.18.42-.36.55c-.06.05-.14.1-.22.1,0,0,.04,0,0,0s-.07-.03-.1-.05c-.35-.24-.49-.76-.52-1.16-.02-.32.08-.63.11-.95.03-.35.05-.75-.08-1.08-.06-.15-.63-.14-.57.03h0Z"></path></g><path class="cls-4" d="M102.23,83.87c.08.12.15.25.22.37.05.1.11.2.17.29.07.1.16.18.27.24.15.08.33.11.5.11.07,0,.14,0,.21-.02.03-.01.09-.04.09-.08,0-.1-.22-.13-.29-.13-.03,0-.06,0-.09,0,.11,0,.05,0,.02,0-.04,0,.07.02.03,0-.01,0-.03,0-.04-.01.07.02.04.02.02,0-.01,0-.02-.01-.03-.02-.03-.02.04.03.01,0-.04-.02-.06-.06-.1-.08.03.02,0,0,0,0,0,0-.01-.02-.02-.02-.02-.02-.03-.04-.04-.06-.13-.2-.23-.42-.36-.62-.03-.04-.09-.06-.13-.08-.07-.02-.15-.03-.22-.03-.05,0-.28.03-.21.13h0Z"></path><path class="cls-4" d="M102.77,83.51c0,.32.09.66.25.95.08.14.18.28.31.37.17.13.38.18.59.19.27,0,.53-.08.74-.25.1-.08-.02-.14-.1-.16-.07-.02-.15-.03-.23-.02-.06,0-.13.01-.18.05-.03.03-.07.05-.11.08-.02.01-.04.02-.06.04,0,0-.02,0-.02.01-.02.01.04-.02,0,0-.02,0-.03.01-.05.02-.05.02.04,0,0,0-.01,0-.07.01-.02,0,.07,0-.07,0,0,0,.05,0,.02,0,0,0-.03,0,.05,0,.05,0s-.02,0-.02,0c-.03,0,0,0,.03,0,0,0-.03,0-.04-.01-.02,0,.03.01.03.01,0,0-.02,0-.03-.01-.01,0-.03-.01-.04-.02.03.02.02,0,0,0-.03-.02-.05-.04-.08-.06-.01-.01-.03-.02-.04-.04.02.02,0,0-.01-.01-.02-.03-.05-.05-.07-.08-.04-.06-.08-.12-.11-.18-.07-.13-.12-.27-.15-.4-.04-.15-.06-.31-.06-.46,0-.11-.22-.13-.29-.13s-.14,0-.21.03c-.03.01-.09.04-.09.08h0Z"></path><path class="cls-4" d="M141.33,55.89c-.33,2.5-1.08,5.94-1.58,7.94-.5,2-4,13.16-5.5,15.66s-5.66,10.66-7,12.33c-1.33,1.67-2,3.17-2.83,2.83-.83-.33-1.33-.83-1.17-2.83.17-2,.67-4,1.33-5.66.67-1.67.67-4.16.67-4.16l4.33-4.66,5.16-8,5-10,1.58-3.44Z"></path><path class="cls-4" d="M105.74,80.38c-.41-.95-1.16.45-1.16.45-.59,7.03-4.62,64.64-4.43,67.96.2,3.32-.2,4.49,2.34,4.29,2.54-.2,6.05-2.73,7.42-3.32,1.37-.59,4.1,1.17,5.27,1.95s4.29,1.76,5.07-.78c.78-2.54.39-2.15.39-9.56s.59-47.23.59-48.4.25-12.61.25-12.61l-1.62,2.16-4.48,9.47s-.98,4.29-2.54,4.29-4.1-3.51-4.29-5.27c-.14-1.28-1.71-8.11-2.81-10.64Z"></path><path class="cls-16" d="M106.73,127.62c-1.33-1.79-3.33-3-3.57-1.93-.56,2.51-.16,14.03-.36,16.77-.2,2.73-2.15,9.91-.78,9.13s7.19-9.88,7.78-12.41c.59-2.54-1.06-6.59-1.65-8.15-.23-.61-.56-2.25-1.42-3.41Z"></path><path class="cls-16" d="M111.51,132.04c-.82,1.37,3.67,14.6,4.64,16.35.98,1.76,1.95,4.88,2.73,2.93s-.11-2.8-.31-7.29c-.19-4.49,1.07-12.13,1.07-15.05s.02-5.37-1.93-4.19c-1.95,1.17-6.2,7.26-6.2,7.26Z"></path><path class="cls-20" d="M137.62,40.28c-.33.42-1.01-.13-1.34.34-1.59,2.3-.85,4.42-.62,4.83.23.41.6.37.88.59.28.21.75.54.88,1.17.08.36.51-.29.88.15.37.44.89,2.41.59,3.22-.59,1.57-.48,2.09-1.46,3.66-.36.58-1.37.92-1.9,2.05,0,0-2.05,2.49-2.78,4.1-1.01,2.22-.91,2.47-2.2,5.56-1.46,3.51-2.94,5.38-2.94,5.38l-4.35,9.83,2.34-.59s8.49-10.83,10.83-16.39c2.34-5.56,5-8.77,6.46-13.75s1.76-7.81,1.37-11.32c-.2-1.84-2.48-5.18-2.48-5.18l-2.66,3.27s-.14,1.32-.52,1.72c-.38.39-.88-.31-1.17.19s.53.76.2,1.17Z"></path><g><path class="cls-12" d="M127.34,76.5c.67,1.18,1.01,3.03-.34,3.71-2.02,1.18-.84-2.36-.84-3.2"></path><path class="cls-4" d="M127.05,76.51c.36.64.61,1.38.58,2.12-.01.34-.09.69-.29.98s-.49.48-.8.63c-.09.04-.19.07-.26.09.06-.01-.01,0-.02,0,0,0,.12.01.05,0,.05,0,.02,0,0,0-.1-.1-.16-.24-.18-.39-.08-.48.01-.99.09-1.47s.22-.96.23-1.43c0-.17-.58-.2-.58-.04,0,.47-.14.94-.22,1.4-.09.51-.2,1.07-.08,1.59.04.2.13.38.31.48.25.14.57.14.84.07.71-.18,1.3-.71,1.45-1.43.19-.87-.12-1.84-.54-2.6-.08-.15-.65-.12-.57.02h0Z"></path></g><path class="cls-20" d="M102.49,25.49c-2,1.59-4.29,6.26-3.12,8.31s2.05,2.05,2.05,3.51.95,4.84,2.41,5.43,1.98,1.89.81,3.35-3.81,4.68-4.39,8.49-.73,15.16,2.93,16.98c1.66.83,4.1,3.22,5.27,2.34s3.51-3.22,3.81-5.34c.59-4.24-.73-3.66-.73-6.59s.29-3.95.44-7.11c.07-1.49-.88-4.1.59-5.85,1.46-1.76,2.93-.65,4.39-1.53.91-.55.92-2.6.78-3.9-.08-.79-.06-1.98-.39-2.54-.55-.91-.74.42-1.17-.39-.26-.49.16-1.81-.39-2.47-.48-.58-.88.7-1.17.13-.6-1.17-.93-4.1-1.66-4.68-1.09-.87-2.29-.55-2.29-.55,0,0-1.81-1.31-2.05-3.28-.24-1.96-2.43-4.15-3.74-4.37-1.39-.23-1.58-.58-2.36.04Z"></path><path class="cls-4" d="M99.91,28.75c-2.33,3.5-4.82,8.89-5.5,11.66-.71,2.89-1.35,5.02-1.14,9.27.08,1.7-.94,3.09-1.28,5.42-.33,2.33-.53,3.08-.43,6.06-.94,4.87,2.2,26.76,2.51,27.9.75,2.8,2.34,4.54,2.83,4.5.49-.04,1.73-1.85,1.87-4.04s.46-3.79.13-6.28c-.33-2.5,2.17-13.83,2.5-15.33s-.5-11.66-.17-13.49c.33-1.83,1.35-3.98,2.66-6.61,1-2,2.48-4.44,1.32-5.27-1.17-.83-1.15-.61-1.82-1.94-.67-1.33-.33-3-.83-4.16-.5-1.17-2.33-2.67-2.5-3.5-.17-.83-.17-4.16-.17-4.16Z"></path><path class="cls-20" d="M105.81,78.53c.02.06.32,2.76.34,2.85.51,2.04,2.5,10.78,3.41,11.84.95,1.1,2.36,3.15,3.31,2.84s2.99-2.6,3.15-5.04c.16-2.44,2.74-5.14,3.69-7.5.95-2.36-2.04.08-5.9-.54-3.91-.63-5.4-4.08-6.11-4-.71.08-1.9-.44-1.9-.44Z"></path><g><path class="cls-3" d="M31.97,63.04c4.23,1.06,19.01,6.34,23.94,8.1,4.93,1.76,13.44,5.84,15.2,6.19,1.76.35,1.99.58,3.11.63,1.62.07,5.09.52,5.09.52l5.01.13s3.8-.55,8.73-1.95c4.93-1.41,42.08-5.4,42.08-5.4l2.82-1.41h2.11c2.11,0,13.03.35,15.49-2.11,2.11-1.06,2.46-2.82,3.52-3.87,1.06-1.06,3.87,0,2.46,1.41-1.41,1.41-.7,3.87-.7,3.87,0,0,2.46,0,6.34-.7s-.35,4.58-.35,4.58l-6.34.35-3.52,1.41-1.41-.7c-1.41-.7-14.08,1.41-14.08,1.41,0,0-1.06.7-3.17,0-2.11-.7-41.9,6.34-44.01,6.34s-.52,1.54-2.67,1.93l-1.82-.65-4.31.83s.09.07-1.06,1.41c-.79.92-3.97-1.67-4.79-2.26-2.59-1.85,20.28,13.52,24.51,16.69,4.23,3.17,12.96,10.79,20.2,15.05,7.61,4.49,26.58,11.93,31.21,12.76,3.92.7,6.26.51,6.26.51,0,0-1.33,1.25.78,2.31,1.45.72,8.13,2.36,11.81,3.06,1.7.32,2.83.1,2.83.1l1.21,1.07s17.01,3.32,22.41,4.4c5.85,1.17,10.34.89,10.34.89,0,0-.95-.17,1.76.7,9.65,3.11,18.31,3.17,18.31,3.17l2.47,1.06-3.52,1.06s1.76,2.82-1.41,1.41c-3.17-1.41-15.49-2.82-15.49-2.82,0,0,2.82,1.41-2.46,0-5.28-1.41-29.23-6.34-33.45-6.69-4.23-.35-14.79-3.17-17.96-3.17-1.06,3.17,8.45,21.83,8.45,21.83h-2.46s-7.75-21.48-10.92-22.53c-3.17-1.06-26.41-10.18-33.08-14.22-6.44-3.9-28.19-19.23-33.47-22.4-5.28-3.17-13.38-7.75-15.49-8.1-2.11-.35-3.52-2.11-5.28-3.52s-23.24-9.51-37.32-14.08c3.37-4.33,2.11-8.57,2.11-8.57Z"></path><path class="cls-1" d="M31.89,63.32c5.36,1.36,10.59,3.38,15.8,5.21,5.61,1.97,11.15,4.01,16.61,6.37,2.18.94,4.42,2.14,6.74,2.71,2.65.64,5.34.85,8.05,1.13,1.66.17,3.45.22,5.11.16,2.27-.08,4.69-.84,6.87-1.4,8.56-2.19,17.51-2.91,26.27-3.94,4.58-.54,9.17-1.06,13.76-1.56,1.18-.13,2.35-.26,3.53-.39,1.01-.11,1.84-.69,2.74-1.14.19-.09.37-.2.57-.28.14-.06.18-.07.02-.04.24-.05.54,0,.78,0,1.02,0,2.04,0,3.06.01,2.71.02,5.43-.03,8.12-.35,2.47-.29,4.6-.84,6.61-2.33.57-.42,1.02-.95,1.43-1.53s.75-1.41,1.32-1.88c.51-.42,1.7-.54,2.17.07s-.66,1.55-.88,2.2c-.3.91-.27,1.97-.02,2.89.03.12.15.22.28.21.65,0,1.3-.05,1.95-.11,1.6-.14,3.22-.58,4.81-.65,2.11-.1-.18,3.05-.73,3.79-.14.19-.42.37-.06.26-.17.06-.42.02-.6.03l-2.76.15c-1.23.07-2.52-.04-3.67.42-.85.34-1.78.62-2.6,1.04-.28.15-.25.09-.11.13-.48-.14-.91-.51-1.37-.69-1.16-.45-2.71-.15-3.91-.04-2.09.19-4.17.47-6.25.77-1.33.19-2.76.28-4.06.63-.5.13-.92.32-1.48.32-.71,0-1.35-.31-2.05-.36-.84-.06-1.71.08-2.53.16-3.24.34-6.47.83-9.69,1.31-8.22,1.24-16.41,2.61-24.62,3.92-2.18.35-4.39.8-6.6.98-.49.04-1.05,0-1.44.35-.62.55-.45,1.77-1.63,1.52-.6-.13-1.16-.56-1.77-.55-.74,0-1.58.31-2.31.45l-1.96.38c-.19.04-.26.28-.17.43-.14-.26-.07-.12-.3.19-.27.36-.58.92-1.05.97-.69.07-1.63-.67-2.17-1.02-.6-.39-1.17-.83-1.74-1.25-.12-.09-.36-.34-.29-.19l-.25.44c-.24,0,0,.04.13.13.22.16.47.31.7.46.74.49,1.47.98,2.21,1.47,2.33,1.56,4.65,3.12,6.97,4.7,4.59,3.11,9.21,6.19,13.7,9.43,6.45,4.65,12.29,10.07,18.99,14.4,6.25,4.04,13.32,6.88,20.22,9.6,3.5,1.38,7.03,2.74,10.64,3.82,2.8.84,5.88,1.39,8.82,1.16l-.21-.5c-2.74,2.69,5.32,4.18,6.52,4.48,2.34.58,4.77,1.29,7.18,1.52.53.05,1.09.09,1.62,0,.11-.02.22-.04.33-.04-.18,0-.22-.16-.05.08.23.33.8.82,1.17.98.7.3,1.67.33,2.41.47,1.72.34,3.44.67,5.16,1.01,4.07.8,8.14,1.59,12.21,2.4,4.28.85,8.64,1.68,13.02,1.41.31-.02.42-.52.08-.58-.22-.04-.54-.02-.53.28,0,.52,1.48.77,1.77.87,3.67,1.21,7.46,2.06,11.28,2.62,2.23.33,4.48.57,6.73.65.21,0,.42,0,.63.02.22.02-.15-.09.22.07.73.32,1.47.63,2.21.95l.07-.54-3.52,1.06c-.18.05-.28.27-.17.43.16.26.56.87.45,1.18-.2.57-1.77-.32-2.26-.48-1.83-.61-3.78-.93-5.68-1.25-3.04-.52-6.1-.95-9.16-1.3-.29-.03-.4.42-.15.55.14.07.43.33.56.34-.03,0,.86.6.17-.26-.02-.03-.19.01-.22,0-.47-.21-1.21-.22-1.72-.34-1.43-.35-2.86-.72-4.29-1.05-4.01-.92-8.04-1.76-12.07-2.59-4.26-.87-8.53-1.72-12.81-2.49-2.93-.52-5.89-.8-8.81-1.34-2.75-.51-5.48-1.12-8.22-1.68-2.06-.42-4.21-.96-6.32-.98-.13,0-.25.09-.28.21-.32,1.04.1,2.34.38,3.34.52,1.84,1.21,3.62,1.93,5.38,1.5,3.69,3.19,7.3,4.94,10.87.4.82.81,1.64,1.22,2.46l.25-.44h-2.46l.28.21c-1.21-3.36-2.52-6.69-3.9-9.99-1.04-2.48-2.11-4.95-3.33-7.35-.83-1.64-1.71-3.54-3.06-4.83-.84-.81-2.22-1.06-3.28-1.46-2.35-.89-4.69-1.81-7.02-2.75-5.92-2.37-11.83-4.81-17.61-7.51-4.13-1.93-7.9-4.24-11.69-6.77-5.36-3.58-10.67-7.24-15.99-10.87-4.1-2.79-8.16-5.68-12.42-8.22-3.39-2.02-6.81-3.99-10.32-5.78-1.19-.6-2.39-1.22-3.65-1.67-.49-.17-.98-.24-1.48-.4-1.11-.34-2.03-1.1-2.88-1.85-.77-.68-1.49-1.42-2.41-1.9-.74-.39-1.51-.72-2.27-1.05-2.49-1.08-5.01-2.07-7.54-3.05-7.2-2.79-14.47-5.42-21.78-7.91-1.71-.58-3.42-1.15-5.13-1.71l.17.43c1.8-2.39,3.01-5.79,2.14-8.79-.1-.36-.67-.21-.56.16.82,2.86-.37,6.07-2.08,8.34-.12.16.01.38.17.43,7.33,2.39,14.6,4.98,21.83,7.68,3.1,1.16,6.19,2.34,9.26,3.58,1.87.75,3.8,1.48,5.58,2.44,1.06.57,1.87,1.52,2.8,2.28.62.51,1.27.98,2,1.29.59.25,1.22.33,1.82.53,3.09,1.02,6.02,2.86,8.85,4.46,4.72,2.66,9.23,5.54,13.71,8.57,5.33,3.61,10.62,7.26,15.95,10.87,3.85,2.61,7.66,5.4,11.79,7.55,5.27,2.74,10.8,5.02,16.29,7.29,4.6,1.9,9.22,3.79,13.9,5.5.46.17.94.28,1.32.6.59.5,1.03,1.21,1.44,1.85,1.29,2.04,2.31,4.26,3.3,6.45,1.92,4.25,3.63,8.6,5.24,12.97.09.25.19.51.28.76.04.12.15.21.28.21h2.46c.23,0,.35-.25.25-.44-2.88-5.66-5.78-11.5-7.73-17.56-.37-1.15-1.07-2.82-.7-4.05l-.28.21c2.06.02,4.15.55,6.17.96,2.62.53,5.24,1.12,7.87,1.61,3.16.6,6.37.91,9.53,1.48,8.66,1.56,17.31,3.3,25.87,5.33.7.16,1.39.34,2.08.52.74.19,1.48.39,2.24.52.24.04.6.14.84.05.86-.31-.21-.97-.57-1.15l-.15.55c2.66.31,5.32.67,7.97,1.1,1.82.3,3.65.61,5.44,1.06.66.17,1.31.36,1.94.61.53.21,1.33.64,1.91.36.84-.41.24-1.61-.1-2.17l-.17.43,3.52-1.06c.22-.07.32-.43.07-.54-.88-.38-1.83-.98-2.78-1.1-1.43-.18-2.9-.15-4.34-.3-2.97-.31-5.93-.81-8.84-1.5-1.77-.42-3.52-.91-5.25-1.48-.31-.1-1.1-.55-1.4-.5-.2.04-.24.46-.16.47l.08-.58c-3.79.23-7.62-.35-11.32-1.09s-7.18-1.41-10.77-2.12c-3.17-.62-6.33-1.24-9.5-1.86-.31-.06-.63-.1-.94-.18-.05-.01-.1,0-.14-.03.19.08.02-.02-.06-.09-.17-.14-.33-.29-.49-.43-.45-.4-.55-.55-1.12-.51-1.2.09-2.36-.13-3.53-.37-2.52-.52-5.04-1.11-7.52-1.8-.88-.24-5.39-1.26-3.77-2.85.17-.17.05-.52-.21-.5-5.91.46-11.83-2.08-17.22-4.15-6.9-2.65-13.99-5.43-20.36-9.23-7.26-4.33-13.44-10.11-20.22-15.1-4.28-3.15-8.73-6.09-13.13-9.07-2.64-1.79-5.29-3.58-7.94-5.35-.83-.56-1.67-1.11-2.5-1.67-.25-.17-.69-.59-1.02-.6-.23,0-.35.25-.25.44.11.21.5.4.67.53.94.7,1.9,1.45,2.99,1.93.82.36,1.43.44,2.04-.27.21-.25,1.1-1.04.86-1.48l-.17.43,2.06-.4c.68-.13,1.55-.47,2.24-.43-.28-.01.1.08.18.11.22.1.46.16.68.24.27.1.6.28.9.3,1,.07,1.32-.77,1.67-1.46.3-.59,1.85-.56,2.52-.65,1.22-.17,2.44-.36,3.65-.55,8.26-1.3,16.5-2.69,24.76-3.95,3.55-.54,7.11-1.09,10.68-1.49.94-.11,1.9-.24,2.85-.22.51,0,.94.21,1.48.29.9.14,1.54-.03,2.36-.28.77-.23,2.34-.36,3.34-.51,2.21-.33,4.43-.64,6.66-.85.89-.08,1.78-.16,2.67-.16s1.33.2,2.12.6c.41.21.5.27.94.12.91-.31,1.79-.72,2.67-1.07,1.12-.45,2.78-.34,4.14-.41.81-.05,1.66-.02,2.47-.14.37-.05.44-.13.67-.44.73-.97,2.08-2.64,1.79-3.95-.14-.62-.7-.84-1.29-.85-.73,0-1.49.22-2.21.33-.89.13-1.78.24-2.67.32-.69.06-1.38.12-2.07.12l.28.21c-.11-.4-.16-.81-.16-1.22,0-.46.04-.93.18-1.36.17-.5.53-.81.81-1.24.55-.84.09-1.64-.81-1.95-1.06-.37-2-.03-2.67.83-.44.57-.77,1.22-1.21,1.8-.56.74-1.27,1.18-2.01,1.69-2.16,1.51-5.15,1.65-7.7,1.81-2.39.15-4.79.14-7.18.13-.76,0-1.68-.15-2.43,0s-1.55.74-2.24,1.08c-.15.07-.86.4-.59.33-.06.02-.14.01-.2.02-.35.05-.71.08-1.07.12-3.77.41-7.54.83-11.31,1.26-5.31.61-10.61,1.23-15.91,1.91-4.04.51-8.1.99-12.1,1.75-2.49.47-4.9,1.26-7.39,1.77-.93.19-1.91.46-2.87.52-.49.03-1.66-.05-2.36-.07-2.06-.05-4.04-.27-6.1-.46-1.43-.14-2.73-.32-4.12-.63-.99-.22-1.9-.56-2.84-.94-5.54-2.25-10.96-4.69-16.6-6.69s-11.6-4.14-17.47-5.97c-.91-.28-1.82-.56-2.75-.8-.37-.09-.52.47-.16.56Z"></path></g><path class="cls-3" d="M91.64,98.54c-.06,2.79-.34,6.4-2.11,8.69-1.57,2.04-4.11,3.45-6.36,4.58-2.43,1.23-5.01,2.24-7.65,2.93-1.03.27-2.08.51-3.14.59-.33.02-.66.02-1-.01-.2-.02-.26-.05-.36-.14-.94-.84-2.04.77-1.12,1.6s2.69.55,3.8.39c2.2-.33,4.35-1.01,6.42-1.8,2.36-.9,4.65-1.99,6.77-3.36,1.85-1.19,3.83-2.62,4.88-4.61,1.38-2.59,1.69-5.8,1.67-8.7,0-1.15-1.78-1.35-1.8-.17h0Z"></path><path class="cls-18" d="M71.53,77.36c2.47,0,3.44,3.85,3.44,5.26.24,2.35-1.81,5.65-6.63,3.89"></path><path class="cls-19" d="M72.98,77.78c4.34-1.34,6.94,4.36,6.43,6.72-.24,1.12-.93,3.66-2.47,4"></path><path class="cls-18" d="M93.47,100.95c.33-2.34-.06-4.28-.29-5.7-.22-1.42-1.93-2.5-2.67-2.02-.74.48-1.08,2.36-.43,2.81.64.46,1.24,2.15,1.37,3.54"></path><path class="cls-22" d="M155.06,133.78c2.78-1.46,3.66-1.9,3.95-2.49s-.37-2.56-2.12-3.29"></path><path class="cls-22" d="M177.53,134.64c-.88.1-1.66.39-1.56.78s1.56,1.95,1.95,2.24"></path><path class="cls-18" d="M85.64,82.97c.24-1.76-.35-3.53-1.88-4.23"></path><path class="cls-18" d="M87.99,82.61c.24-1.76-.35-3.53-1.88-4.23"></path><path class="cls-18" d="M90.23,82.02c.24-1.76-.35-3.53-1.88-4.23"></path><path class="cls-2" d="M45.03,79.92c.52,2.74,1.41,3.88,3.42,7.92,1.84,3.7,2.65,10.92-.07,11.53-2.72.61-6.72-4.33-12.7-5.22-3.33-.49-5.34-.32-6.85-.72-3.36-.88-6.05-2.5-6.8-2.41-1.22.14.13,1.96,1.1,5.33,1.18,4.12,1.75,6.42-6.94,6.15-2.11.54-.44,3.08-6.53,5.31-3.85,1.41-10.14,2.16-9.46,2.71.57.46,6.17,3.77,10.53,6,2.59,1.32,4.04,1.55,4.92,2.26,2.38,1.9,3.16,4.01,6.29,4.29,3.12.27,10.41-.39,14.28,1.04,3.87,1.42,9.9-4.29,9.29-1.44-.48,2.25-4.36,4.52-7.68,5.63-4.37,1.46-8.18,1.37-6.11,1.09-4.6,1.55-8.42,1.88-10.32,4.26-1.9,2.38-11.62,5.65-11.62,5.65l4.31,2.32s6.02.91,6.36,3.97c.34,3.06-1.55,6.11-6.18,7.88-1.79.69-1.5,3.26-1.22,5.71.15,1.39.6,3.48-.73,5.69-1.01,1.69-3.18,3.81-4.15,4.72-2.24,2.1,6.3-.36,8.88.59,2.58.95,5.68-2.19,6.29.53.61,2.71,5.03-.67,7.95-2.23,1.08-.58,1.86-2.92,3.46-3.39,2.72-.81,4.99,1.94,5.17,3.58.32,2.88,1.06,2.49,1.96,1.75,1.5-1.23,3.76-4.73,6.2-6.81,2.94-2.5,3.47-8.06,5.27-13.35,1.51-4.44,3.68-8.05,5.2-8.36,1.91-.39,2.36.76,3.01,2.78.14.45,2.16,2.67,1.39,5.04-1.63,4.99-7.05,21.06-4.84,24.72,1.53,2.53,3.93,1.66,5.49,4.58,1.56,2.92.93,3.55,3.37,6.06,2.44,2.51,2.94,4.06,3.89,7.04.95,2.99,1.83-.43,2.44-3.28.61-2.85,4.72-6.13,5.74-6.35,3.07-.65,1.74-3.95,2.29-7.41.54-3.46,5.08-.98,8.48,2.49,3.76,3.84,4.34,4.56,3.33-1.82-1.02-6.39,1.99-10.95-.66-15.29-2.65-4.35-5.82-9.74-6.56-13.68-.75-3.94,1.03-7.39,5.04-4.73,4.01,2.65,7.05,4.94,9.63,5.89,2.58.95,3.87-1.36,7.13.14,3.26,1.5,5.75,2.26,4.59.22-1.15-2.04-1.27-.77-4.28-5.86-1.63-2.77-4.43-7.05-6.79-10.67-1.88-2.88-3.23-5.26-5.31-6.68-4.69-3.19-7.15-5.56-9.84-9.09-4.48-5.89-14.59.58-14.59.58l-1.02-1.75c2.12-4.28,8.2-7.81.87-17.19-1.89-2.43-12.6-14.47-15.04-16.98-2.44-2.51-12.02-7.95-12.76-11.89-.5,2.95.98,8.37,1.5,11.16Z"></path><path class="cls-13" d="M115.89,162.53c2.56.53,3.76,2.03,8.58,1.92,4.41-.1,10.98,1.64,9.47,3.72-1.54,2.08-8.88,3.34-14.53,7.28-3.24,2.21-4.82,3.7-6.49,4.66-3.76,2.14-7.63,3.58-8.25,4.15-1,.92,1.88.51,5.81.83,4.83.41,7.45.69-.58,6.86-1.43,1.69,2.55,1.23-.9,6.3-2.24,3.21-7.59,8.03-6.36,7.68,1.03-.29,9.79-3.42,16.09-5.94,3.67-1.48,5.18-2.46,6.67-2.89,3.98-1.15,6.79-1.1,9.68-3.24,2.82-2.13,7.92-7.43,12.24-9.71,4.21-2.26,7.36-7.57,9.63-6.3,1.82,1,1.36,4.33.13,6.93-1.67,3.44-4.58,6.06-3.31,4.54-1.86,3.64-4.44,6.4-3.43,8.41,1.04,2-3.23,9.75-3.23,9.75l6.08-2.41s5.7-3.96,9.32-3.36c3.64.6,5.66,2.74,4.19,6.43-.59,1.44,2.63,1.91,5.7,2.36,1.75.26,4.54.49,6.2,1.99,1.28,1.14,2.23,3.18,2.62,4.09.91,2.09,4.18-4.46,7.15-5.98,2.92-1.53,1.29-4.46,4.91-4.17,3.62.29,2.48-3.59,2.51-5.98,0-.89-2.18-2.03-1.73-3.25.74-2.05,5.17-2.82,7.12-2.5,3.45.56,3.42-.03,3.09-.83-.54-1.33-3.18-3.78-4.12-5.97-1.11-2.64-6.69-4.55-11.18-7.25-3.65-2.28-6.03-4.78-5.49-5.87.66-1.38,2.03-1.34,4.34-1.17.51.04,3.73-.64,5.68.56,4.2,2.52,18.44,10.58,23.48,10.15,3.47-.29,3.57-2.08,7.42-2.28,3.84-.2,4.28.38,8.01-.49,3.68-.86,5.57-.76,9.22-.54,3.67.21.13-1.26-2.82-2.43-2.92-1.17-5.1-4.66-5-5.36.27-2.1-3.6-2.2-7.01-3.53-3.36-1.33.61-3.46,5.09-4.56,4.86-1.21,5.73-1.36-.94-2.58-6.58-1.24-10.12-4.45-15.02-4.1-4.94.35-11.09.73-15,.01-3.88-.73-6.24-2.92-2.35-4.66,3.77-1.71,6.79-2.91,8.43-4.23,1.59-1.31-.04-2.83,2.13-4.38,2.09-1.53,3.31-2.82,1.33-2.75-1.99.06-.95.54-6.01.78-2.77.13-7.17.51-10.92.84-3.02.26-5.44.36-7.39,1.22-4.52,1.98-7.68,3.33-11.74,4.2-3.3.7-8.24,4.74-8.24,4.74l-2,.12c-2.29-2.78-7.35-4.68-15.84-2.48-3.06.79-6.05.44-7.6-.03-.98-.3-3.68-.42-5.19-.6-1.44-.17-3.71,1.03-3.09,1.79.63.75-3.46.97-7.16,1.83-3.75.87-15.58,5.83-19.16,5.05,1.78,1.33,7.15,2.07,9.75,2.61Z"></path><path class="cls-10" d="M165.22,154.71c1.78,1.97,3.54,4.33,4.09,6.98.45,2.2.81,4.43,1.26,6.63.62,3.13,1.37,6.24,2.32,9.28.99,3.17,2.31,6.19,3.79,9.16.78,1.57,1.57,3.13,2.36,4.69.66,1.33,1.37,2.66,1.8,4.09.07.24.41.14.37-.1-.45-2.8-1.81-5.32-3.06-7.82-1.54-3.09-3.03-6.17-4.11-9.46-1.76-5.39-2.71-10.96-3.9-16.49-.61-2.83-2.38-5.45-4.62-7.25-.21-.17-.48.09-.3.3h0Z"></path><path class="cls-10" d="M70.28,117.05c-2.8,2.8-5.83,5.26-9.29,7.21-2.59,1.46-5.23,2.76-7.72,4.39-3.47,2.27-6.74,4.85-9.75,7.7-3.84,3.66-7.02,7.83-10.27,12.01-3.69,4.75-7.47,9.47-11.83,13.62-.21.2.1.5.31.31,3.96-3.65,7.41-7.76,10.75-11.98s6.51-8.55,10.33-12.33c3.12-3.09,6.53-5.88,10.18-8.33,2.37-1.59,4.85-2.94,7.37-4.27,2.39-1.25,4.63-2.78,6.7-4.52,1.22-1.03,2.74-2.23,3.34-3.76.03-.07-.07-.12-.12-.07h0Z"></path><path class="cls-7" d="M70.72,116.51c.11-.24-.2-.07-.26-.03-.48.3-.84.78-1.23,1.19-1.58,1.66-3.19,3.32-5.05,4.67-.99.72-2.06,1.39-3.22,1.84-.59.23-1.15.49-1.72.77-1.55.78-3.05,1.65-4.52,2.58-4.41,2.77-8.54,6.04-12.23,9.72-4.67,4.66-8.38,10.16-12.54,15.26-2.32,2.84-4.75,5.6-7.39,8.15s-5.36,5.08-8.38,7.27c-.23.16-.01.54.22.38,5.13-3.62,9.69-8.06,13.8-12.79,2.13-2.45,4.15-5,6.15-7.56s3.91-5.13,6.07-7.53c3.66-4.08,7.84-7.71,12.37-10.81,2.79-1.91,5.69-3.61,8.8-4.96,2.4-1.04,4.45-2.86,6.26-4.72.72-.73,1.39-1.5,2.03-2.3.2-.25.4-.49.57-.77.04-.07.14-.18.16-.26,0-.03.04-.04.05-.07.02-.06-.08-.11-.08-.08,0,.07.11.1.14.04h0Z"></path><path class="cls-7" d="M1.56,110.69c1.38.02,2.82.42,4.18.65,2.25.38,4.49.77,6.75,1.1,1.5.22,3.07.52,4.59.38,2.26-.22,4.52-.53,6.78-.76,6.14-.64,12.5-1.01,18.58.28,2.14.46,4.12,1.35,6.24,1.86s4.42.89,6.64,1.2c2.86.4,5.73.7,8.61.85,2.14.11,4.47.28,6.58-.21.14-.03.08-.23-.06-.21-1.96.3-3.96.25-5.93.17-2.59-.12-5.18-.37-7.76-.7-2.35-.3-4.69-.65-7.01-1.15-1.99-.43-3.84-1.21-5.8-1.74-5.9-1.57-12.2-1.35-18.23-.79-2.46.23-4.92.55-7.38.83-.74.09-1.49.21-2.24.18-.79-.03-1.58-.13-2.36-.23-2.49-.32-4.96-.75-7.43-1.15-1.05-.17-2.1-.35-3.15-.51-.52-.08-1.06-.2-1.59-.2-.11,0-.11.16,0,.16h0Z"></path><path class="cls-7" d="M70.77,116.47c0-.11-.16.02-.17.04,0,0,.02.04.02.04,0,.03.06.17.07.21.08.24.14.48.2.72.21.84.42,1.67.6,2.52.55,2.52,1,5.06,1.26,7.62.53,5.29-.24,10.53-.94,15.77-.75,5.57-1.34,11.1-1.38,16.72-.04,5.06.07,10.13.25,15.19s.35,10.22.94,15.29c.02.17.27.17.27,0-.56-9.98-1.03-19.96-.98-29.96.01-2.69.08-5.38.3-8.07.26-3.14.68-6.26,1.1-9.38.38-2.86.77-5.73.98-8.61.19-2.66.11-5.3-.22-7.95s-.85-5.43-1.57-8.08c-.17-.65-.33-1.36-.62-1.96-.06-.12-.32-.43-.32-.09,0,.14.21.14.22,0h0Z"></path><path class="cls-7" d="M44.26,71.71c1.12,4.31,2.04,8.83,4.21,12.76.78,1.42,1.71,2.76,2.54,4.15.97,1.62,1.91,3.25,2.85,4.88,1.82,3.16,3.61,6.35,5.46,9.5,1.49,2.54,3.54,4.72,5.51,6.89,1.2,1.32,2.42,2.62,3.62,3.93.44.47.87.94,1.29,1.43.18.2.49.48.58.72.07.18.37.1.3-.08-.23-.59-.91-1.13-1.33-1.58-.99-1.08-2-2.14-3-3.21-2.14-2.3-4.46-4.6-6.2-7.23-.81-1.22-1.51-2.53-2.24-3.79-.97-1.68-1.94-3.37-2.91-5.05-1.78-3.08-3.54-6.19-5.46-9.19-2.75-4.27-3.84-9.29-5.22-14.12,0,0-.01,0,0,0h0Z"></path><path class="cls-7" d="M70.72,116c.35.64,1.27,1.08,1.86,1.46,1.32.85,2.68,1.65,4.04,2.45,3.29,1.94,6.61,3.84,9.79,5.94s5.65,4.53,8.2,7.09c2.92,2.93,5.73,5.98,8.64,8.92,1.49,1.51,3.01,2.99,4.61,4.38,1.24,1.08,2.56,2.2,4.04,2.94.12.06.22-.11.11-.18-2.83-1.8-5.28-4.06-7.65-6.42-2.89-2.87-5.65-5.86-8.49-8.76-2.54-2.6-5.13-5.22-8.07-7.36s-6.19-3.91-9.34-5.74c-1.66-.97-3.33-1.92-4.97-2.93-.59-.36-1.17-.73-1.74-1.12-.29-.21-.69-.44-.9-.74-.05-.07-.16,0-.12.07h0Z"></path><path class="cls-7" d="M68.74,97.22c.45,2.91.83,5.84,1.04,8.77.09,1.27.15,2.53-.03,3.8-.16,1.11-.11,2.24.03,3.36.12.93.26,1.93.58,2.81.05.13.22.08.2-.06-.16-1.07-.48-2.1-.61-3.19s-.09-2.14.05-3.23c.16-1.25.04-2.55-.07-3.8-.24-2.84-.65-5.67-1.15-8.48,0-.03-.06-.02-.05.01h0Z"></path><path class="cls-7" d="M165.58,154.59c.96,1.02,1.84,2.15,2.57,3.35.54.88,1.1,1.88,1.37,2.88.39,1.46.59,2.99.87,4.47.92,4.92,1.95,9.86,3.65,14.57.94,2.62,2.14,5.14,3.38,7.63,1.07,2.16,2.23,4.31,3.06,6.58.88,2.41,1.34,5.05,1.67,7.59.27,2.07.38,4.14.34,6.23-.03,1.51-.15,3.03-.39,4.52-.11.69-.31,1.4-.32,2.1,0,.25.38.25.38,0,0-.58.31-1.24.46-1.8.32-1.22.56-2.46.68-3.72.43-4.62-.29-9.43-1.51-13.88-.57-2.11-1.59-4.09-2.55-6.04-1.27-2.57-2.58-5.12-3.66-7.78-1.96-4.84-3.14-9.98-4.17-15.08-.37-1.82-.66-3.66-1.1-5.46-.26-1.06-.86-2.1-1.43-3.02-.81-1.32-1.81-2.44-3-3.44-.2-.17-.49.1-.3.3h0Z"></path><path class="cls-7" d="M165.27,154.74c.17,1.49-.46,3.08-1.09,4.4-.28.57-.58,1.13-.94,1.66-.47.69-1.16,1.27-1.79,1.82-2.44,2.17-5.26,3.86-8.18,5.32s-6.07,2.73-9.17,3.95c-2.14.84-4.07,2.16-5.89,3.54-4.3,3.28-8.1,7.18-11.81,11.1-1.7,1.79-3.37,3.61-5.06,5.41-1.19,1.26-2.37,2.57-3.71,3.68-1.98,1.64-4.26,2.97-6.41,4.35-2.02,1.3-4.14,2.54-5.96,4.11-.03.02.01.06.04.04,1.75-1.38,3.73-2.51,5.62-3.68,2.08-1.3,4.2-2.56,6.17-4.01,1.33-.98,2.49-2.18,3.63-3.36,1.66-1.72,3.28-3.47,4.92-5.19,3.79-3.99,7.65-7.97,11.98-11.38,1.88-1.48,3.88-2.91,6.07-3.87,1.55-.69,3.19-1.21,4.77-1.83,1.5-.59,2.98-1.2,4.44-1.87,3.33-1.52,6.57-3.36,9.26-5.87,1.21-1.12,2.12-2.27,2.75-3.8.59-1.42,1.05-3.02.68-4.56-.04-.18-.34-.14-.32.04h0Z"></path><path class="cls-7" d="M165.38,154.92c1.43.51,2.79,1.42,4.12,2.13,2.39,1.28,4.8,2.53,7.23,3.72,2.65,1.3,5.34,2.56,8.18,3.38,3.11.9,6.32,1.35,9.53,1.72s6.16.63,9.19,1.24c2.7.54,5.18,1.51,7.67,2.67,4.65,2.16,9.17,4.61,13.78,6.84,1.89.92,3.78,1.73,5.83,2.24,2.93.73,5.96,1.19,8.96,1.48.15.01.18-.23.04-.26-2.72-.5-5.46-.9-8.16-1.54-1.9-.45-3.69-1.1-5.45-1.94-4.49-2.15-8.85-4.55-13.34-6.71-2.35-1.13-4.72-2.27-7.25-2.95-2.85-.76-5.8-1.09-8.73-1.41-3.2-.35-6.42-.68-9.57-1.37s-5.95-1.81-8.8-3.13-5.65-2.75-8.46-4.17c-1.03-.52-2.05-1.05-3.08-1.56-.52-.26-1.05-.56-1.61-.74-.23-.08-.32.28-.1.36h0Z"></path><path class="cls-7" d="M110.27,160.53c.51.37,1.42.34,2.01.4,1.45.15,2.91.23,4.36.3,3.98.2,7.97.32,11.96.45,1.82.06,3.64.12,5.45.19,1.45.06,2.92.06,4.35.27,2.93.43,5.92.88,8.89.67,1.56-.11,3.1-.38,4.64-.64s3.13-.39,4.62-.93c2.36-.86,4.5-2.26,6.35-3.94.85-.77,1.87-1.66,2.47-2.66.13-.22-.09-.45-.31-.4-.12.02-.19.16-.25.25-.21.29.27.56.47.28.11-.15.04-.01-.07,0l-.31-.4c-.48.77-1.28,1.52-1.95,2.16-1.57,1.52-3.36,2.83-5.34,3.76-1.27.6-2.52.93-3.89,1.14-1.7.26-3.39.6-5.1.82-3.03.39-6.07.1-9.08-.32-3.21-.45-6.46-.45-9.69-.54-3.89-.1-7.79-.18-11.68-.31-1.74-.06-3.48-.14-5.22-.25-.58-.04-1.17-.08-1.75-.15-.28-.04-.66-.04-.92-.17-.02-.01-.04.02-.02.03h0Z"></path><path class="cls-7" d="M210.69,143.41c-1.34,1.08-3.26,1.42-4.89,1.79-1.79.4-3.46.85-5.08,1.72s-3.18,2.04-4.74,3.1c-1.65,1.12-3.37,2.09-5.25,2.77-3.26,1.19-6.74,1.74-10.18,2.03-3.17.26-6.37.29-9.55.14-1.93-.09-3.99-.12-5.87-.58-.31-.07-.44.4-.13.48,1.58.38,3.33.41,4.95.51,3.16.19,6.33.2,9.48-.01,3.51-.23,7.05-.72,10.41-1.79,1.77-.57,3.46-1.33,5.05-2.3,1.67-1.03,3.21-2.26,4.87-3.31,1-.63,2.05-1.2,3.16-1.62.91-.34,1.87-.54,2.82-.76,1.71-.4,3.79-.74,5.01-2.13.02-.02,0-.05-.03-.03h0Z"></path><path class="cls-7" d="M22.04,91.69c.92,1.23,2.01,2.34,3.07,3.44,1.49,1.54,3.01,3.05,4.57,4.52,1.23,1.16,2.48,2.33,3.83,3.35.85.65,1.8,1.16,2.69,1.76,1.4.94,2.87,1.91,4.1,3.05.54.5,1.08,1.01,1.6,1.52s1,.97,1.27,1.64c.2.48.41.96.65,1.42.11.2.24.56.48.64.17.06.25-.22.08-.27-.22-.07-.47-.8-.56-.99-.2-.43-.33-.9-.55-1.31-.23-.44-.67-.81-1.02-1.16-.53-.53-1.09-1.02-1.63-1.54-1.97-1.9-4.45-3.16-6.67-4.73-1.31-.92-2.49-2.05-3.67-3.14-1.5-1.39-2.98-2.81-4.42-4.27-1.27-1.28-2.59-2.57-3.68-4.01-.06-.08-.21,0-.14.08h0Z"></path><path class="cls-7" d="M20.76,122.34c1.35-1.33,2.85-2.07,4.69-2.48,1.69-.37,3.26-.82,4.84-1.51,1.67-.73,3.31-1.53,4.84-2.51,1.4-.9,2.77-1.97,3.63-3.42.08-.13-.13-.25-.21-.12-.94,1.6-2.53,2.74-4.09,3.68s-3.1,1.66-4.71,2.36-3.24,1.02-4.93,1.44-3.01,1.22-4.22,2.41c-.11.1.06.27.16.16h0Z"></path><path class="cls-7" d="M41.12,168.92c1.98-4.92,2.41-10.27,3.2-15.47.57-3.74,1.28-7.48,1.35-11.28.02-1,0-2.01-.17-3-.11-.65-.27-1.41-.78-1.86-.08-.07-.22.02-.16.12.84,1.29.84,2.99.82,4.47-.02,2.14-.27,4.27-.57,6.39-.63,4.54-1.46,9.04-2.05,13.58-.31,2.38-.99,4.76-1.87,6.99-.05.14.17.2.22.06h0Z"></path><path class="cls-7" d="M10.3,139.42c1.1,1.04,3.04,1.09,4.45,1.15,1.69.06,3.39-.03,5.06-.29,1.32-.21,2.62-.41,3.91-.8s2.64-.92,3.92-1.48c2.62-1.16,5.11-2.6,7.79-3.64,3.2-1.23,6.56-1.71,9.84-.49.14.05.2-.17.06-.22-5.45-2.04-10.64.66-15.47,3.04-2.55,1.25-5.17,2.42-7.96,3.01-1.83.39-3.73.59-5.6.64-1.1.02-2.22,0-3.31-.16-.86-.13-1.86-.31-2.52-.93-.12-.11-.29.07-.17.17h0Z"></path><path class="cls-7" d="M72.31,144.24c1.36,1.33,3.21,2.08,4.44,3.56,1.03,1.25,1.66,2.78,2.14,4.31s.79,3.07,1.07,4.64c.23,1.3.38,2.64.7,3.93.53,2.13,1.48,4.21,2.37,6.22.45,1.02.92,2.04,1.38,3.06.34.75.64,1.54,1.02,2.26.35.67.92,1.25,1.41,1.81.8.91,1.64,1.79,2.49,2.65.89.91,1.8,1.8,2.77,2.63.2.17,1,1.01,1.34.76.12-.09,0-.3-.12-.21-.09.07-1.22-.97-1.35-1.08-.85-.76-1.66-1.56-2.46-2.37s-1.63-1.68-2.4-2.56c-.5-.57-1.07-1.15-1.42-1.83-.88-1.71-1.61-3.53-2.39-5.29-.88-1.99-1.84-4.07-2.34-6.2-.66-2.77-.87-5.62-1.71-8.35-.47-1.53-1.09-3.06-2.08-4.34-1.26-1.62-3.21-2.39-4.67-3.8-.12-.12-.31.07-.19.19h0Z"></path><path class="cls-7" d="M58.26,173.59c.38-2.3.33-4.69.86-6.97.45-1.94,1.29-3.9,2.42-5.55.72-1.05,1.57-2.03,2.39-3.01.99-1.19,2.03-2.35,3.17-3.39.96-.87,2.32-2.09,3.74-1.96.12.01.15-.2.03-.22-1.09-.16-2.13.56-2.95,1.19-1.3,1.01-2.44,2.24-3.51,3.48-.91,1.05-1.76,2.15-2.62,3.24-1.17,1.48-1.97,3.3-2.53,5.09-.82,2.59-.71,5.37-1.14,8.03-.02.1.13.14.15.04h0Z"></path><path class="cls-7" d="M171.91,174.67c-.08.61-.59,1.09-.92,1.59-.38.55-.76,1.1-1.14,1.65-.76,1.13-1.5,2.29-2.17,3.48-1.22,2.13-1.62,4.62-2.27,6.96-.38,1.36-.9,2.55-1.67,3.73-.67,1.04-1.43,2.01-2.22,2.96-1.44,1.72-2.87,3.41-4.56,4.88s-3.59,2.87-4.4,4.96c0,.02.03.03.04,0,.82-2.04,2.77-3.43,4.41-4.79,1.76-1.45,3.25-3.11,4.75-4.83s3.11-3.74,3.8-6.04c.74-2.48,1.09-5.18,2.35-7.48.75-1.38,1.62-2.74,2.5-4.04.36-.54.71-1.08,1.09-1.61.31-.44.61-.88.63-1.43,0-.13-.19-.12-.2,0h0Z"></path><path class="cls-7" d="M177.11,185.66c1.4,1.41,2.97,2.68,4.82,3.44.95.39,1.92.5,2.91.73.89.21,1.71.59,2.57.9,1.02.37,2.08.52,3.15.71,1.13.2,2.26.41,3.4.61,2.37.41,4.72,1.15,7.12,1.39.1.01.12-.16.02-.18-2.26-.56-4.49-1.22-6.79-1.61-1.14-.2-2.27-.41-3.4-.61-1.05-.19-2.11-.32-3.12-.66-.82-.28-1.6-.65-2.44-.89-.94-.27-1.91-.34-2.85-.65-1.98-.67-3.66-1.99-5.14-3.44-.17-.16-.43.09-.26.26h0Z"></path><path class="cls-7" d="M180.3,193.28c.12,3.48-1.33,6.43-3.49,9.08-1.98,2.44-4.47,4.55-6.09,7.27-.05.08.07.18.14.11,2.09-2.61,4.51-4.93,6.59-7.55s3.31-5.57,3.17-8.91c0-.21-.33-.21-.32,0h0Z"></path><path class="cls-7" d="M183.41,200.15c.32.68,1.27.58,1.91.53,1.04-.09,2.1,0,3.13.14,2.39.35,4.77,1.3,6.08,3.44.08.13.27.01.2-.12-1.09-2.04-3.11-3.12-5.32-3.55-1.13-.22-2.29-.31-3.44-.29-.66,0-2.03.42-2.51-.2-.03-.03-.07,0-.06.04h0Z"></path><path class="cls-7" d="M111.87,184.62c3.77-.49,7.14-2.26,10.29-4.31,1.59-1.03,3.1-2.22,4.83-3.01,1.96-.89,4-1.6,6.1-2.08,2.33-.53,4.69-.72,7.07-.76.19,0,.19-.3,0-.3-4.03-.05-8.08.77-11.81,2.29-.91.37-1.87.74-2.71,1.25-.77.47-1.51,1.03-2.26,1.53-1.59,1.08-3.2,2.13-4.91,3.02-2.07,1.08-4.28,1.88-6.6,2.19-.11.01-.11.19,0,.17h0Z"></path><path class="cls-7" d="M153.55,168.67c-.79,1.37-1.57,2.76-2.12,4.25-.46,1.25-.6,2.44-.7,3.75-.04.49-.17.98-.27,1.46-.24,1.14-.41,2.29-.54,3.45-.01.12.19.14.21.03.2-1.13.39-2.27.62-3.4.1-.47.22-.94.27-1.41.04-.35.02-.71.05-1.06.07-.83.26-1.64.53-2.43.54-1.59,1.36-3.06,2.19-4.51.08-.14-.13-.26-.21-.12h0Z"></path><path class="cls-7" d="M199.17,165.87c1.71.65,3.76.42,5.53.21,2.38-.28,4.73-.76,7.06-1.29,2.03-.46,4.05-.99,6.09-1.4s4.09-.15,6.16,0c3.36.22,6.73.5,10.08.79.17.01.16-.24,0-.26-2.89-.32-5.78-.58-8.68-.79-1.61-.12-3.22-.22-4.84-.3-.71-.03-1.34-.04-2.03.08-1.88.31-3.74.81-5.59,1.25-2.37.55-4.75,1.11-7.16,1.49-2.06.32-4.54.75-6.56.02-.13-.05-.19.16-.06.21h0Z"></path><g><path class="cls-12" d="M105.13,74.72c.7,0,1.23,0,1.58.53.53.88.18,1.23,0,1.93-.88,1.76,1.41,2.11,2.29.88.7-1.05.7-3.17-.53-3.87-.53-.35-2.29-.53-2.64.18"></path><path class="cls-4" d="M105.13,74.84c.29,0,.62-.03.89.09.31.13.5.45.61.75.2.57-.1,1.17-.29,1.7-.14.39-.17.84.14,1.15s.83.4,1.26.37c.46-.03.93-.2,1.28-.51.38-.34.57-.84.68-1.33.21-1.04,0-2.36-.99-2.94-.48-.28-1.11-.36-1.66-.35-.49,0-1.23.08-1.49.57-.08.15.48.21.56.06.19-.36.65-.4,1.02-.4.38,0,.8.07,1.13.27.89.56,1.04,1.79.86,2.73-.09.46-.26.95-.62,1.27-.15.14-.33.24-.52.31-.15.06-.33.08-.45.08-.27-.01-.57-.19-.67-.48-.07-.18-.05-.39-.01-.57.03-.13.08-.24.13-.36.06-.13.09-.27.13-.4.09-.26.19-.52.18-.8,0-.33-.16-.7-.37-.95-.43-.52-1.17-.51-1.79-.51-.07,0-.29,0-.29.12s.23.12.29.12h0Z"></path></g><path class="cls-4" d="M105.55,80.61c.29.21.68.28,1.03.24.27-.03.52-.11.73-.28.31-.27.51-.62.65-1,.05-.14.1-.29.09-.44,0-.09-.1-.14-.17-.17-.12-.06-.28-.08-.41-.08s-.29,0-.42.05c-.06.03-.18.07-.18.16.01.16-.04.32-.1.47l.02-.06c-.12.31-.3.62-.55.85l.06-.05c-.05.04-.1.08-.16.12-.01,0-.02.01-.03.02.11-.07.08-.03.04-.02-.01,0-.02,0-.03.01-.08.03.13-.03.06-.02-.09.02.14-.01.09-.01-.06,0-.12,0,.1,0-.1,0,.17.02.1,0-.05,0-.08-.04.09.02-.05-.02-.09-.05.06.02-.01,0-.02-.01-.04-.02-.08-.03.08.05.03.02-.02-.01-.03-.02-.05-.03-.1-.07-.23-.1-.35-.12-.14-.02-.31-.02-.45,0-.09.02-.23.05-.27.13-.04.07-.01.13.05.18h0Z"></path><path class="cls-4" d="M107.67,27.17c-.41-.5-.83-1.01-1.3-1.46-.27-.26-.58-.51-.93-.66-.7-.29-1.46-.02-2.13.22-.14.05-.08.28.06.23.63-.24,1.35-.53,2.02-.26.35.14.65.4.93.66.45.42.85.9,1.24,1.36.07.08.17-.03.11-.11h0Z"></path><g><path class="cls-12" d="M101.82,74.9c.35.7-.18,1.76-.18,2.46-.18.7-.19,2.94-1.41,1.7-1.05-.88-.7-5.49,1.46-4.29"></path><path class="cls-4" d="M101.54,74.91c.24.53.04,1.16-.08,1.7-.09.39-.13.79-.19,1.19-.05.35-.1.71-.21,1.05-.05.14-.11.29-.21.4-.01.01-.09.08-.1.07-.02-.08.24.08.04-.04-.56-.34-.75-.97-.82-1.59-.08-.7-.02-1.46.24-2.11.11-.29.29-.6.56-.78.06-.04.11-.06.18-.08.04-.01.1-.02.1-.02.03,0,.09,0,.15.03.1.03.18.07.27.12.11.06.3.07.41.02.11-.04.11-.11,0-.17-.69-.37-1.56-.34-2.02.35-.44.65-.54,1.53-.51,2.3s.2,1.46.8,1.93c.31.24.84.4,1.18.12.28-.23.35-.67.42-1,.08-.45.13-.9.2-1.35.11-.7.46-1.48.14-2.17-.07-.15-.64-.13-.57.03h0Z"></path></g><g><path class="cls-12" d="M102.6,75.07c.58-.16,1.74-.29,2.1.24.53.88.2,1.04.06,1.78-.37,1.93,1.24,2.47,2.29.88.7-1.06.54-3.39-.69-4.09-.53-.35-3.77-.5-3.75,1.04"></path><path class="cls-4" d="M102.8,75.17c.3-.08.61-.13.92-.12.35,0,.6.1.77.41s.24.61.15.95-.21.67-.23,1.04c-.03.56.14,1.19.69,1.44s1.21.11,1.67-.27c1.06-.85,1.18-2.45.73-3.66-.19-.5-.55-1-1.06-1.22-.42-.18-.91-.21-1.35-.22-.9-.02-2.78.1-2.79,1.36,0,.17.58.2.58.04,0-1,1.32-1.16,2.07-1.17.37,0,.78.02,1.08.13,0,0,.01,0,.05.02,0,0,.03.02.08.05.12.08.23.18.33.29.2.22.34.49.44.76.42,1.14.3,2.69-.7,3.49-.16.13-.41.3-.63.28-.15-.01-.32-.18-.4-.31-.35-.54-.21-1.27-.03-1.84.09-.29.13-.55.04-.85-.12-.35-.3-.65-.65-.8-.66-.28-1.48-.19-2.16,0-.11.03-.1.11-.01.17.12.07.29.06.41.03h0Z"></path></g><g><path class="cls-12" d="M124.98,70.93c-.35.53-.18,1.41-.18,1.93,0,.7-.18,1.23-.18,1.76-.18,2.11,1.76,1.76,2.46.18.38-1.14.44-2.29.52-3.48.04-.62,0-1.6.79-1.69.7-.08,1.82,1.02,2.14,1.56.52.89.21,1.99-.05,2.9-.48,1.68-1.63.83-1.63-.53,0-1.26.17-3.09-1.29-3.68-.94-.38-3.4.13-2.58,1.57"></path><path class="cls-4" d="M124.7,70.91c-.31.5-.23,1.13-.2,1.69.04.64-.12,1.24-.16,1.87-.05.82.1,1.72,1.09,1.74.85.01,1.63-.63,1.94-1.4.53-1.3.42-2.77.56-4.14.03-.34.17-1.06.65-.9.52.17.98.62,1.34,1.03.4.46.6.98.59,1.6,0,.34-.07.68-.15,1.01-.09.36-.17.74-.33,1.08-.05.1-.11.2-.18.29-.03.03-.06.05-.09.08-.07.07-.12,0,0,.04-.14-.04-.27-.21-.36-.34-.28-.44-.26-.95-.25-1.45.01-.94.04-2.07-.63-2.82s-1.77-.76-2.67-.53c-.4.1-.84.28-1.11.6-.29.34-.24.75-.03,1.13.08.14.65.06.56-.09-.47-.87.36-1.39,1.14-1.5.35-.05.73-.05,1.06.11.46.23.77.65.92,1.13s.19,1.03.19,1.55c0,.48-.06.99.06,1.46.09.36.29.74.64.9.33.15.77.1,1.04-.14.43-.37.53-1.07.65-1.59.15-.63.22-1.31-.03-1.93-.19-.47-.56-.85-.93-1.17s-.77-.62-1.25-.7c-.42-.08-.93.03-1.18.4s-.24.87-.26,1.29c-.04.73-.08,1.47-.19,2.2-.1.66-.22,1.35-.63,1.89-.2.27-.62.71-1.01.67-.43-.05-.56-.63-.58-.97-.04-.73.19-1.43.18-2.16,0-.63-.18-1.33.17-1.9.08-.13-.48-.18-.57-.03h0Z"></path></g><path class="cls-4" d="M123.58,78.9c.42,0,.82-.11,1.18-.34.26-.17.47-.4.66-.64.08-.11.16-.22.24-.33.05-.07.09-.13.09-.22,0-.07,0-.15,0-.22,0-.14.01-.28.03-.42.02-.12.03-.19.12-.29.06-.06-.01-.15-.06-.18-.09-.07-.24-.1-.35-.1-.23-.02-.55-.02-.72.17-.16.17-.18.47-.19.69,0,.07,0,.14,0,.21,0,.06.01.13,0,.19,0-.03-.03.04-.03.04-.02.02-.03.05-.05.07-.04.05-.07.1-.11.15-.08.1-.16.21-.24.3-.1.11-.14.15-.25.24-.05.04-.1.08-.15.11-.03.02-.05.03-.08.05-.08.05.06-.02-.02,0-.03.01-.07.03-.1.04-.04.02.11-.03,0,0-.12.03.07,0,.02,0-.14.01.13,0,.01,0-.13,0-.29.02-.41.07-.06.03-.17.08-.17.17,0,.21.47.23.59.23h0Z"></path><path class="cls-4" d="M128.44,77.66c1.23-.36,1.86-1.71,1.86-2.91,0-.22-.35-.32-.52-.36-.14-.03-.28-.05-.42-.02-.06.01-.2.04-.2.12,0,1.11-.53,2.38-1.65,2.72-.26.08.02.31.13.36.24.11.54.17.8.09h0Z"></path><path class="cls-4" d="M125.1,83.17c1.23-.37,1.87-1.69,1.87-2.9,0-.38-1.11-.62-1.11-.36,0,1.1-.53,2.4-1.65,2.73-.25.07-.02.3.1.37.21.13.54.24.79.17h0Z"></path><path class="cls-4" d="M131.43,77.28c1.27-.38,1.87-1.72,1.87-2.96,0-.08-.16-.19-.21-.22-.12-.08-.28-.14-.42-.17-.15-.03-.48-.09-.48.13,0,1.07-.56,2.34-1.64,2.66-.25.07-.03.29.09.37.2.13.53.26.78.19h0Z"></path><path class="cls-4" d="M99.8,79.55c-.16.32-.22.66-.2,1.02.02.33.12.66.2.98.02.09.15.17.22.21.11.06.23.1.35.13.11.03.23.05.34.04.06,0,.21-.03.21-.11,0-.1.05-.18.1-.26l-.04.05s.05-.06.07-.09c.16-.16-.19-.35-.31-.39-.14-.06-.29-.1-.44-.11-.09,0-.23-.01-.3.06-.1.11-.21.25-.21.41l1.12.27c-.09-.34-.19-.69-.2-1.04v.07c0-.31.07-.61.2-.89.04-.07-.08-.18-.12-.21-.1-.08-.25-.15-.38-.19s-.28-.07-.42-.05c-.08.01-.17.03-.21.11h0Z"></path><path class="cls-4" d="M103.3,80.82c.32.24.76.32,1.15.26.26-.04.48-.16.67-.34.3-.29.5-.69.65-1.07.06-.16.13-.34.15-.51.01-.08-.1-.15-.15-.18-.12-.06-.27-.1-.41-.11s-.29-.02-.42.03c-.07.02-.18.06-.19.15-.03.24-.12.47-.22.69l.03-.06c-.15.34-.35.69-.64.92l.06-.05s-.09.06-.13.09c-.01,0-.02.01-.04.02-.05.03.09-.03.05-.02-.01,0-.02,0-.03,0-.04.01-.1.01.07-.01-.1.01.16,0,.07,0,.22,0,.16.01.1,0,0,0,.19.03.1.01,0,0,.17.05.09.02-.05-.02.12.06.07.03,0,0-.04-.02-.04-.02,0,.01.1.07.04.02-.21-.16-.53-.2-.79-.16-.09.01-.22.03-.28.11-.05.06-.02.14.04.19h0Z"></path><g><path class="cls-12" d="M132.42,70.44c1.55,1.16,1.72,3.31,1.44,3.74-.29.43-1.72,1.58-2.01.72s-.14-2.73-.43-3.16-.14-2.16,1.01-1.29Z"></path><path class="cls-4" d="M132.17,70.5c.78.6,1.28,1.5,1.45,2.46.06.31.09.65.03.97-.05.26-.26.45-.46.62-.24.21-.61.51-.94.55.03,0,.06.04.02,0-.02-.02-.04-.03-.05-.05-.06-.07-.09-.16-.11-.25-.06-.21-.09-.42-.11-.64-.06-.5-.07-1.01-.11-1.51-.03-.34-.06-.67-.21-.97-.14-.27-.12-.65-.05-.94.04-.16.11-.27.22-.39.01-.01.05-.03.05-.04-.03.02-.08-.03-.04,0,.09.07.22.11.31.17.1.08.28.08.4.05.07-.02.21-.08.11-.16-.36-.26-.92-.45-1.32-.17-.28.2-.36.61-.36.93,0,.16.02.33.08.48s.13.27.16.43c.1.53.1,1.08.13,1.62.02.28.04.56.09.84.04.2.07.44.21.59.31.34.91.21,1.28.04.41-.19.79-.48,1.08-.82.2-.23.23-.52.23-.82-.02-1.2-.64-2.41-1.59-3.14-.1-.08-.28-.08-.4-.05-.07.02-.21.08-.11.16Z"></path></g><path class="cls-16" d="M97.81,36.26c.59.85,1.53,1.3,1.09,1.68-.44.38-.82,1.43-1.4,1.05-.58-.38-1.11-1.04-.83-1.54.28-.51,1.14-1.18,1.14-1.18Z"></path><path class="cls-16" d="M100.99,43.91c.59.85,1.53,1.3,1.09,1.68-.44.38-.82,1.43-1.4,1.05-.58-.38-1.11-1.04-.83-1.54.28-.51,1.14-1.18,1.14-1.18Z"></path><path class="cls-16" d="M99.43,46.26c.56.61,1.36.86,1.06,1.22-.31.36-.49,1.23-.99.99-.51-.24-1-.7-.84-1.14.16-.44.78-1.07.78-1.07Z"></path><path class="cls-16" d="M95.05,49.91c.68.47,1.26.04,1.04.45-.22.41-.21,1.3-.76,1.17-.54-.13-1.12-.47-1.06-.93.07-.46.78-.7.78-.7Z"></path><path class="cls-16" d="M92.76,59.92c.23-.15.72-.13.88.15.16.27.15.87-.22.91-.37.04-.82-.05-.88-.35-.06-.31-.01-.55.22-.71Z"></path><path class="cls-16" d="M93.97,51.87c.28-.19.86-.15,1.05.18.19.32-.19.67-.63.72-.45.05-.61.31-.68-.05-.07-.37-.02-.66.26-.85Z"></path><path class="cls-16" d="M97.58,53.66c.47-.63.72-.13.88.15.15.25-.04,1.4-.33,1.21-.29-.18-.71-.35-.76-.65-.06-.31.05-.48.22-.71Z"></path><path class="cls-16" d="M96.86,55.18c.22-.15.51.09.66.35.15.25-.05,1.15-.4,1.19-.35.04-.57-.38-.62-.66-.05-.29.15-.73.37-.87Z"></path><path class="cls-16" d="M95.73,56.7c.28-.19.58-.07.78.26.19.32,0,1.3-.45,1.35-.45.05-.63-.4-.7-.77-.07-.37.09-.66.37-.84Z"></path><path class="cls-16" d="M94.25,58.38c.28-.19.76-.25.99.14.23.39.17.99-.29,1.01-.46.02-.94.55-1.04.13-.1-.43.07-1.09.35-1.28Z"></path><path class="cls-16" d="M94.87,41.75c.74.51,1.24.32,1.18.68-.07.36-.77,1.16-1.05,1.66-.28.51-.6,1.75-.91,1.41-.31-.34.5-1.81.46-2.1-.04-.29.32-1.66.32-1.66Z"></path><path class="cls-16" d="M95.97,39.26c.67.4,1.22.41,1.04.93-.19.52-.18.99-.6.73-.42-.26-1.09-.66-.93-1,.16-.34.49-.65.49-.65Z"></path><path class="cls-16" d="M100.3,34.3c1.22.02.97,1.29.2,1.98l-.78.69s-1.24-1.34-.98-1.75c.26-.42,1-.93,1.56-.92Z"></path><path class="cls-16" d="M103.47,41.71c1.22.02.94.73-.08,2.43-.43.71-.78.69-.78.69,0,0-1.24-1.34-.98-1.76.26-.42,1.28-1.38,1.84-1.37Z"></path><path class="cls-16" d="M96.95,47.64c.92-.33-.05.59.17,1.39.2.73-.39.74-.39.74,0,0-1.02-.08-1.17-.74-.09-.38.97-1.24,1.39-1.39Z"></path><path class="cls-4" d="M136.45,10.99c0,.66-.06,1.32-.15,1.98-.04.3-.09.61-.14.91-.05.32-.15.66-.14.98,0,.09.12.1.15.02.12-.32.15-.68.2-1.02.05-.31.1-.62.14-.93.09-.65.14-1.3.14-1.95,0-.13-.2-.13-.2,0h0Z"></path><path class="cls-6" d="M136.23,14.46c.54.34.61,3.06.41,3.88-.2.82.13,1.43.13,2.38s.13,2.11.68,3.06c.54.95,5.47,8.51,4.38,10.27-1.09,1.77-2.62,2.91-2.62,2.91l-1.08-1.09-1.09,2.11-.24.2-1.83,1.5.17-.48.05-1.43s-1.41,2.57-2.29,2.91c-.88.34-.79-.2-.79-.2,0,0-.32,1.08-.93,1.62-.17.15-.36.59-.62.81-.67.56-1.89.92-1.89.92l-.28-1.87-4.13,1.69-.91-3.1,1.68,1.03-2.91-.2-1.89-2.67-1.12-.09-.52-3.16-.23,1.48-.5.34-2.44-1.09c-.47-1.04-.72.11-.83-1.2-.07-.81-.41.14-1.16-.13-.74-.27-.43-1.11-1.31-1.11s-.91.51-1.65-.44c-1.31-1.67-1.52-1.08-1.96-2.35-.4-1.15-.18-1.65-.55-2.38-.39-.77-.03-.35-1.05-1.23-1.02-.88-1.95-2.03-3.1-1.69-1.15.34-.67-.11-1.35.29.61-1.29,2.98-9.51,3.59-11.15.61-1.63,3.86-8.5,7.72-10.26,3.86-1.77,4.74-2.38,6.78-2.51,2.03-.14,6.44.41,7.66,1.02,1.22.61,3.52,1.22,4,1.49.47.27.54-.13-.41.2-.95.34-1.69.61-1.76,1.16-.07.54-.2.88-.81,1.02-.61.14-.28,1.36-.41,1.57-.14.2-.27.41-1.29.95-1.02.54-.95,1.02-.95,1.16s.14,1.02.48,1.15c.34.14.4,1.43,1.01,1.36.61-.07.82.54,1.29.2.48-.34,1.43-.27,1.43-.27l.34.34.81-.2.14.41,1.76-2.04-.34,1.84.81-.68.47.41,1.42-1.63v2.99Z"></path><path class="cls-4" d="M136.88,22.91c.34.61.39,1.32.67,1.96.25.58.6,1.11.95,1.63.55.81.99,1.67,1.43,2.54s.88,1.76,1.18,2.69c.23.71.57,1.8-.01,2.43-.27.29.17.73.44.44,1.29-1.4-.11-3.92-.82-5.26-.47-.9-.93-1.86-1.52-2.69-.43-.61-.89-1.19-1.25-1.86s-.43-1.39-.83-2.02c-.1-.15-.33-.02-.24.14h0Z"></path><path class="cls-4" d="M141.68,33.5c-.13.86-.7,1.43-1.34,1.96-.57.47-1.18.94-1.43,1.67l.39-.05c-.29-.54-.74-.98-1.18-1.4-.1-.1-.25-.07-.32.04-.48.7-.47,1.57-.86,2.3-.1.18.15.31.27.16.5-.67.45-1.57.95-2.25l-.32.04c.4.41.83.81,1.1,1.33.09.17.33.11.39-.05.25-.71.95-1.17,1.49-1.66.62-.56,1.1-1.2,1.2-2.05.02-.19-.3-.23-.33-.04h0Z"></path><path class="cls-4" d="M135.11,39.64c.2-.61.24-1.22.24-1.86,0-.15-.2-.19-.28-.08-.45.67-.84,1.38-1.33,2.03-.24.32-.52.67-.87.88-.29.18-.47.08-.6-.22-.02-.05-.09-.09-.15-.08-.58.04-.66.85-.92,1.24-.19.29-.37.54-.5.86s-.24.53-.58.69c-.15.07-.04.31.11.27.64-.18.71-.72,1-1.24.15-.28.35-.51.48-.81.07-.17.18-.65.41-.67l-.15-.08c.15.33.43.56.8.46.4-.11.73-.49.98-.8.61-.74,1.05-1.57,1.57-2.37l-.28-.08c0,.61-.03,1.2-.21,1.79-.05.17.22.25.27.07h0Z"></path><path class="cls-4" d="M128.74,43.37c-.24-.51-.21-1.09-.45-1.6-.04-.08-.15-.1-.22-.06-.5.25-.97.56-1.46.82-.62.33-1.29.72-1.99.84-.21.04-.37.04-.42-.16-.03-.12-.22-.12-.25,0-.15.74.9.48,1.26.35.79-.29,1.54-.71,2.27-1.13.25-.15.5-.3.76-.44l-.22-.06c.24.5.22,1.09.46,1.59.09.19.36.02.27-.16h0Z"></path><path class="cls-17" d="M122.2,9.29c0,1.56-1.26,2.82-2.81,2.82s-2.81-1.26-2.81-2.82,1.26-2.82,2.81-2.82,2.81,1.26,2.81,2.82Z"></path><path class="cls-21" d="M122.02,9.29c0,1.46-1.18,2.64-2.63,2.64s-2.63-1.18-2.63-2.64,1.18-2.63,2.63-2.63,2.63,1.18,2.63,2.63Z"></path><path class="cls-4" d="M120.46,9.2c0,.64-.52,1.17-1.16,1.17s-1.16-.52-1.16-1.17.52-1.17,1.16-1.17,1.16.52,1.16,1.17Z"></path><path class="cls-16" d="M120.21,7.56c-.02.65-.98.48-1.44.96-.47.49-.53,1.41-.89,1.52-.69.22-1.01-.15-.89-.87.13-.78,1.27-2.07,1.98-2.18.72-.11,1.27-.15,1.24.58Z"></path><path class="cls-4" d="M108.09,28.71c-.45-.55-.88-1.11-1.33-1.65-.34-.42-.7-.84-1.12-1.18-.68-.56-1.45-.72-2.28-.42-.14.05-.08.28.06.23.38-.14.78-.22,1.19-.13s.75.33,1.05.6c.88.78,1.57,1.77,2.32,2.66.06.08.17-.03.11-.11h0Z"></path><path class="cls-4" d="M140.82,4.8c-1-.36-2.07.09-2.99.49-1.24.55-2.49,1.06-3.73,1.62s-2.39,1.18-3.64,1.65c-1.06.4-2.1.84-3.14,1.27-.4.16-.17.73.23.55,2.04-.94,4.09-1.85,6.12-2.81,1.12-.53,2.29-.96,3.41-1.5,1.24-.6,2.3-1.14,3.71-1.1.1,0,.11-.13.02-.16h0Z"></path><path class="cls-4" d="M132.66,4.68c.77.01,1.53-.09,2.3-.17.72-.08,1.44-.07,2.16-.14s1.33-.15,2.02-.12,1.31-.07,1.89.46c.11.1.28-.06.17-.17-.38-.36-.89-.55-1.41-.55-.73,0-1.45.02-2.17.09-.8.08-1.61.08-2.41.17-.85.1-1.68.29-2.54.32-.08,0-.08.12,0,.12h0Z"></path><path class="cls-4" d="M140.83,5.02c.29.26-.07.55-.26.75-.21.22-.41.45-.62.68-.51.57-1.07,1.09-1.56,1.67-.44.52-.93,1.01-1.35,1.55s-.68,1.17-1.17,1.64c-.18.17.09.44.27.27.56-.52.83-1.26,1.34-1.83.28-.31.57-.61.84-.93s.52-.66.83-.95c.58-.56,1.07-1.2,1.61-1.8.33-.36.79-.86.29-1.28-.15-.13-.38.09-.23.23h0Z"></path><path class="cls-4" d="M117.01,7.1c-.75.39-1.14,1.07-1.61,1.73-.51.71-1.5.5-2.15.98-.14.1-.16.38.05.41.39.07.74-.14,1.13-.11s.82.14,1.15.33c.63.37.93,1.1,1.55,1.48.15.09.32-.09.24-.24-.19-.33-.45-.62-.7-.91s-.52-.55-.84-.74-.74-.3-1.13-.36c-.22-.04-.43-.04-.64,0-.19.04-.42.14-.61.11l.05.41c.32-.24.72-.28,1.09-.39.4-.12.74-.24,1.04-.55.27-.27.43-.66.64-.99.24-.38.52-.7.91-.93.16-.09.02-.33-.14-.24h0Z"></path><path class="cls-4" d="M112.38,9.98c-1.13.24-2.14.75-3.14,1.31-.49.28-.94.61-1.37.97s-.86.74-1.21,1.19c-.1.14.1.32.23.23.44-.28.8-.66,1.19-1,.43-.38.89-.72,1.38-1.02.95-.59,1.91-1.12,3-1.39.19-.05.11-.34-.08-.3h0Z"></path><path class="cls-4" d="M132.17,4.31c-1,.15-1.84.92-2.51,1.63-.45.48-.87.99-1.23,1.54-.13.2.13.44.32.32-.08.05-.07,0-.03.09.03.07.06.17.1.24.04.08.12.05.04.05-.02,0-.21-.08-.22-.08-.28-.08-.57-.13-.83.05-.12.09-.16.25-.05.37.1.1.22.13.34.16.04,0,.44.1.46.08-.01-.22-.08-.27-.19-.16l-.13.05c-.14.05-.28.05-.42.09-.23.06-.41.16-.56.34-.13.16-.04.38.17.4-.22-.02-.56,0-.75.13-.13.09-.17.32,0,.4.22.11.23.17,0,.2-.13.02-.27.06-.4.1-.33.08-.65.16-.97.24-.34.09-.96.13-1.24.38-.14.13-.05.33.1.39.16.06.49-.06.63-.09.39-.07.78-.13,1.17-.16.17-.01.37.02.53,0,.03,0,.13.05.05,0l-.11-.26-.3.71c-.09.21.18.34.34.26.06-.03.29-.12.32-.1l-.12-.2c0-.14-.06-.05-.14.03-.04.03-.09.06-.12.11-.07.09-.11.2-.06.32.07.15.21.15.35.2.2.07.39.19.55.33v-.33l-.29.29c-.1.1-.09.3.05.37l.7.36-.11-.26-.1.6c-.03.17.1.34.29.29l1.16-.31-.23-.06.17.18c.21.21.54-.12.33-.33l-.17-.18c-.06-.06-.15-.08-.23-.06l-1.16.31.29.29.1-.6c.02-.1,0-.21-.11-.26l-.7-.36.05.37.29-.29c.08-.08.1-.25,0-.33-.19-.16-.41-.31-.65-.41-.13-.05-.23-.15-.19.06s.02.1.13.05c.07-.03.18-.12.22-.19.33-.56-.62-.38-.85-.27l.34.26.3-.71c.04-.09-.03-.22-.11-.26-.17-.1-.42-.08-.6-.07-.3,0-.59.05-.89.09-.24.03-.47.07-.71.12-.08.01-.39.04-.3.07l.1.39c-.11.1.12-.01.21-.04.18-.05.36-.1.55-.15.4-.11.81-.21,1.21-.31.29-.07.76-.06.96-.31.31-.37-.09-.7-.4-.86v.4c.3-.21.73.07.95-.36.19-.36-.09-.61-.44-.65l.17.4c.27-.33,1.36-.22,1.36-.8,0-.48-.65-.22-.86-.42l-.05.37c.33-.23.63.2.96.12.21-.05.3-.31.29-.51-.02-.35-.35-1.06-.79-.78l.32.32c.32-.48.69-.94,1.09-1.36.63-.69,1.42-1.44,2.38-1.59.3-.04.17-.5-.12-.45h0Z"></path><path class="cls-4" d="M117.79,37.18c-.74-.37-1.63-.52-2.28-1.06-.33-.27-.48-.61-.54-1.03-.04-.25-.05-.5-.06-.75,0-.23,0-.48-.06-.7-.03-.1-.17-.1-.2,0-.08.24-.05.51-.05.76s.03.52.06.78c.06.43.22.81.55,1.11.67.61,1.61.78,2.41,1.17.18.09.34-.18.16-.27h0Z"></path><path class="cls-4" d="M114.54,34.5c-.34.08-.73.21-1.08.19l.17.17c-.06-.52-.62-.91-1.01-1.16-.28-.18-.47-.32-.81-.26-.15.03-.28.09-.42.13-.23.06-.34-.04-.53-.18-.64-.51-1.25-.98-1.61-1.73s-.62-1.48-.77-2.27c-.07-.35-.27-.73-.42-1.06s-.31-.68-.67-.81c-.11-.04-.2.12-.11.19.37.31.53.83.7,1.27.07.17.14.33.18.51.04.2.07.4.12.6.23.85.57,1.83,1.13,2.53.29.36.65.64,1,.93.33.27.59.55,1.05.43.18-.05.35-.16.54-.15.21,0,.39.18.56.27.25.14.7.52.74.83.01.07.1.12.16.12.38.01.8-.14,1.16-.24.19-.05.11-.33-.08-.29h0Z"></path><path class="cls-4" d="M114.43,4.23c-2.78,1.18-4.79,3.57-6.32,6.1-1.75,2.9-3.03,6.04-3.93,9.3-.57,2.08-1.15,4.14-2.34,5.97-.16.25.16.56.41.41.55-.34,1.01-.27,1.6-.14.27.06.52.12.79.02.33-.13.21-.66-.15-.55s-.83-.15-1.18-.18c-.5-.05-.93.08-1.36.34l.41.41c1.23-1.91,1.8-4.08,2.39-6.24s1.38-4.36,2.38-6.43c1.66-3.44,3.83-7.09,7.47-8.7.2-.09.03-.38-.17-.3h0Z"></path><path class="cls-4" d="M113.67,4.93c.88-1.02,2.57-1.34,3.81-1.69,1.49-.43,2.9-1,4.48-.93.89.04,1.77.19,2.66.24s1.86.18,2.76.4c.99.23,1.8.67,2.66,1.2.31.19.63.44.99.49.28.04.59-.17.82.03.19.17.48-.11.28-.28-.17-.15-.33-.26-.57-.24-.14.02-.25.1-.4.1-.3,0-.68-.29-.93-.44-.83-.51-1.61-.95-2.56-1.19s-1.86-.37-2.8-.44-1.95-.21-2.93-.25c-1.67-.07-3.15.56-4.72,1.03-1.23.37-2.91.76-3.77,1.79-.12.14.08.35.21.21h0Z"></path><path class="cls-4" d="M130.41,4.94c.09.06.18.12.27.18.04.03.08.05.11.09.02.02.05.08.06.05l.31-.18c-.29-.08-.57-.08-.87-.11-.25-.02-.49-.09-.74-.1s-.38.33-.21.5c.11.11.25.19.38.28.1.07.23.14.26.26l.29-.38c-.06,0-.14-.08-.2-.11-.1-.05-.2-.07-.31-.08-.18-.02-.36.21-.29.38.04.11.09.21.14.31.03.08.04.2.09.27-.01-.03,0,.02,0,.02,0,0,.04-.08.04-.08,0-.03.04,0-.04-.01s-.16-.01-.23-.03c-.09-.03-.18-.06-.27-.1-.36-.12-.73-.24-1.11-.32-.4-.08-.8-.07-1.21-.03-.25.03-.25.36,0,.39.48.06.97.15,1.44.28.43.12.85.35,1.3.38.33.03.67-.11.68-.49,0-.27-.15-.55-.24-.77l-.29.38c.06,0,.14.08.2.11.1.05.2.07.31.08.2.02.33-.21.29-.38-.11-.43-.52-.53-.81-.79l-.21.5c.23,0,.45.06.68.08.27.02.53-.01.79.04.18.03.31-.07.32-.25.04-.41-.43-.59-.71-.76-.25-.14-.45.22-.22.38h0Z"></path><path class="cls-4" d="M133.88,9.43c-.44.25-.81.6-1.22.89s-.79.61-1.17.93-.77.65-1.17.97c-.43.35-.79.76-1.21,1.12-.13.11-.03.36.14.35.38-.03.73-.24,1.09-.36.15-.05.29-.1.44-.13.04-.01.07-.02.11-.02.06,0,.05-.01-.03-.05,0,.05-.02.1-.02.15-.02.22.1.37.33.33.38-.06.58-.4.89-.58l-.25-.03c.17.16.08.41.07.62,0,.15.17.25.3.17.49-.31.64-.99,1.02-1.4.1-.11.21-.22.32-.31.05-.04.11-.08.16-.12.03-.02.06-.04.1-.06l-.09-.05s-.1.29-.11.32c-.05.13-.09.25-.14.38-.08.23-.16.46-.21.7s-.14.61.05.8c.18.17.4.06.54-.1.17-.19.21-.41.3-.64.05-.12.25-.68.41-.67l-.21-.16c.15.38-.21.79-.12,1.2.03.14.2.19.31.13.4-.2.56-.62.71-1.02h-.37c.02.1.05.14.12.21.06.07.2.08.26,0,.26-.33.3-.78.57-1.1.21-.25.59-.2.64-.59l-.3-.04c.02.65-.06,1.29-.14,1.93-.07.52-.17,1.13-.59,1.49-.27.24.13.65.4.4.39-.36.61-.97.66-1.49.08-.76.06-1.57-.02-2.33-.02-.19-.29-.2-.3,0-.01.15-.26.17-.37.23s-.19.15-.27.25c-.22.3-.27.71-.53.98h.26,0c-.01-.16-.27-.28-.36-.09-.13.29-.27.65-.57.8l.31.13c-.09-.41.29-.77.13-1.2-.04-.1-.11-.15-.21-.16-.5-.04-.77.76-.9,1.12-.01.04-.17.38-.17.37.11.05.16.04.14-.04,0-.05,0-.1,0-.16.01-.15.05-.31.09-.45.07-.26.15-.51.23-.77.05-.14.13-.32.12-.47-.05-.59-.77,0-.94.15-.2.19-.38.4-.53.63-.17.27-.32.69-.6.86l.3.17c.02-.34.09-.64-.18-.9-.06-.06-.17-.08-.25-.03-.16.09-.28.22-.43.34-.07.05-.22.1-.26.16-.05.07.03.22.09.12.11-.17-.05-.46-.21-.52-.22-.07-.53.05-.73.12-.34.12-.72.35-1.07.38l.14.35c.38-.33.72-.71,1.11-1.04s.78-.65,1.15-1,.75-.67,1.15-.99.74-.73,1.16-1.03c.08-.06.01-.19-.08-.14h0Z"></path><path class="cls-4" d="M136.2,15.05c.17-.12.37-.27.41-.48h-.27c.07.43.26.84.32,1.28.05.41-.04.81-.08,1.22-.03.29-.06.58-.11.87-.02.14-.04.27-.06.41,0,.05-.03.11-.03.17,0,.03,0,.05.01.08.02.05-.02.02,0-.05l.11-.11h0s.08.01.12.02c.03.02.05.06.02,0-.05-.08-.17-.08-.21,0-.12.2.1.4.26.22.08-.08.08-.2.1-.31.02-.15.04-.29.06-.44.04-.29.07-.57.09-.86.03-.39.11-.76.06-1.16-.06-.48-.25-.95-.41-1.4-.05-.14-.28-.13-.28.04s-.09.31-.21.43c-.05.05.01.13.07.09h0Z"></path><path class="cls-4" d="M136.53,18.51c-.03.34.07.7.09,1.04s.01.68,0,1.02c0,.29.1.56.08.85-.02.32-.12.64-.21.95-.14.5-.38.96-.54,1.45-.05.15-.23.79.14.75.12-.02.2-.19.07-.25.07.04,0,.05.05-.07.03-.09.05-.18.08-.27.07-.22.15-.44.23-.65.21-.5.38-1.01.47-1.55.04-.23.05-.47.02-.7-.05-.3-.08-.58-.1-.88s-.04-.62-.09-.92c-.04-.26-.09-.57-.26-.77-.01-.01-.03,0-.03.01h0Z"></path><path class="cls-4" d="M124.36,42.9c-.86-.47-.6-1.63-.84-2.43-.03-.1-.16-.14-.23-.06-.43.47-.49,1.29-1.26,1.32l.14.1c-.12-.3-.07-.57-.12-.88-.04-.22-.18-.42-.31-.6-.27-.39-.63-.71-.94-1.07-.46-.52-1.1-1.33-1.8-.69l.2.03c-.41-.59-.32-1.4-.32-2.09,0-.45,0-1.03-.4-1.32-.09-.06-.2.08-.12.15.43.35.28,1.22.28,1.7,0,.57,0,1.2.34,1.69.05.07.13.08.2.03.63-.56,1.28.55,1.66.95.28.29.56.58.77.93.13.22.18.38.18.63,0,.23.03.42.12.63.02.06.07.11.14.1.37-.01.66-.14.88-.44s.32-.69.58-.97l-.23-.06c.27.89.01,2.06.97,2.59.15.08.29-.15.14-.24h0Z"></path></g><g><path class="cls-4" d="M159.49,108.4c1.45,0,2.38.3,2.97.63.63-.26,1.43-.42,1.9-.48l.12.08c-.06.61-.67,3.15-.87,3.64l-.48.2c-.28-.73-.65-1.9-.87-2.65-.36-.22-1.01-.4-1.94-.4-3.41,0-5.25,2.81-5.25,5.82s1.84,5.82,5.37,5.82c.38,0,.57-.02.79-.08,1.19-1.17,2.18-2.04,2.95-2.63l.36.42c-.3.89-1.25,2.49-1.58,2.87-.59.2-2.32.53-3.35.53-3.82,0-7.62-2.08-7.62-6.79s4.28-6.99,7.48-6.99h.02Z"></path><path class="cls-4" d="M168.56,117.39c-.02.12-.02.16-.02.26-.02,1.86,1.15,3.15,2.75,3.15.18,0,.32-.02.5-.06.61-.5,1.52-1.11,1.98-1.35l.12.34c-.14.73-1.15,1.72-1.52,1.94-.36.14-1.27.4-2.06.4-2.77,0-4.59-1.72-4.59-4.55s2.12-4.75,4.57-4.75c2.14,0,3.78,1.31,3.78,3.62,0,.32-.08.55-.22.63-.16.1-.91.38-2.1.38h-3.19ZM171.29,116.5c.06-.14.12-.38.12-.63,0-1.37-.44-2.28-1.25-2.28-1.03,0-1.6,1.76-1.62,2.91h2.75Z"></path><path class="cls-4" d="M175.44,113.55c.3-.16,2.52-.75,3.39-.79.1.38.22,1.35.2,1.66h.06c.63-.95,1.56-1.66,2.53-1.66.54,0,.89.16,1.13.42-.04.57-.59,2.08-.99,2.75l-.34.1c-.22-.34-.44-.63-.85-1.45-.08-.06-.16-.08-.3-.08-.42,0-.95.44-1.19.95v5.17l1.98.63-.14.55c-1.09,0-2.18-.02-3.27-.02-.85,0-1.68.02-2.53.02l.06-.55,1.09-.63c.08-2.02.1-5.25.1-6.06l-1.07-.53.14-.47Z"></path><path class="cls-4" d="M190.33,113.02l-.34.79-2.57.32c0,1.29-.02,3.07-.02,5.29,0,.5.1.69.2.81.2.16.57.3.93.3.73,0,1.27-.26,1.6-.52l.08.04v.69c-.44.75-1.51,1.33-2.75,1.33-1.07,0-1.86-.32-2.34-.91-.32-.42-.44-.87-.44-2.06v-4.97l-1.23-.34.3-.77h.99c.14-.51.71-2.04,1.05-2.42.42-.26,1.47-.48,1.72-.48l-.1,2.89h2.91Z"></path><path class="cls-4" d="M190.98,113.39c.3-.1,2.18-.53,3.66-.63v4.12c0,2.22.02,3.33.04,3.76l1.33.61-.12.57c-.93,0-1.7-.02-2.63-.02-.83,0-1.72.02-2.51.02l.1-.57,1.05-.61c.02-.69.04-2.24.04-3.8v-2.42l-1.11-.55.16-.48ZM193.36,108.42c.34.12,1.05.93,1.33,1.45l-.06.22c-.22.47-.99,1.23-1.37,1.45l-.2.06c-.47-.28-1.09-.97-1.33-1.45l.04-.22c.36-.57.97-1.19,1.41-1.47l.18-.04Z"></path><path class="cls-4" d="M198.15,113.04c0-1.15.44-2.65,1.78-3.76.95-.81,2.3-1.23,3.58-1.23.97,0,2.02.26,2.59.79-.18.67-.52,1.58-.83,2.04l-.4.16c-.22-.3-.77-1.49-.95-2.06-.14-.06-.36-.1-.65-.1-1.37,0-2.22,1.49-2.34,3.15-.02.36-.06.69-.06,1.01h3.27c.52-.1,1.6-.18,2.63-.24v4.08c0,2.22,0,3.11.04,3.76l1.41.65-.14.53c-.83,0-1.66-.02-2.5-.02-.77,0-1.56.02-2.34.02l.08-.53.67-.69c.02-.67.06-2.2.06-3.76v-3.01l-3.19.2c-.02.55-.04,1.37-.04,2.65,0,3.01.02,3.74.06,3.96l1.03.65-.12.53c-.79,0-1.56-.02-2.38-.02s-1.72.02-2.65.02l.06-.53,1.21-.57c.02-.28.08-1.54.08-3.88v-2.81l-1.33-.28.26-.71h1.09Z"></path><path class="cls-4" d="M209.01,117.59c0-3.29,2.83-4.83,5.37-4.83,1.41,0,2.4.46,2.81.77-.08.4-.52,1.78-.89,2.42l-.36.08c-.2-.34-.57-1.35-.83-2.34-.1-.06-.28-.1-.49-.1-1.86,0-2.75,1.78-2.75,3.58,0,2,1.07,3.6,2.99,3.62.18,0,.34-.02.49-.1.59-.42,1.33-.89,1.72-1.09l.2.42c-.18.5-.97,1.5-1.33,1.7-.3.1-1.15.34-1.9.34-2.53,0-5.03-1.31-5.03-4.46v-.02Z"></path><path class="cls-4" d="M223.4,115.87c.06-1.54-.89-1.96-1.62-1.96-.44,0-.79.12-1.01.2-.08.83-.26,1.98-.4,2.4l-.16.14c-.2-.02-1.41-.93-1.72-1.9.75-.63,1.96-1.31,2.91-1.66.51-.2.97-.32,1.39-.32,2.55,0,3.25,1.82,3.25,2.99,0,1.43-.02,3.15-.04,4.4.1.22.73.73,1.43.99l-.06.32c-.24.2-.91.57-1.8.57-1.35,0-1.94-.63-2.12-1.05h-.04c-1.05.77-1.62,1.09-2.32,1.09-1.7,0-2.61-1.39-2.61-2.51,0-.83.28-1.31.83-1.6.55-.38,2.83-1.13,4.08-1.49l.02-.59ZM221.21,119.14c0,1.09.79,1.43,1.33,1.43.28,0,.47-.08.67-.24.12-.1.14-.26.14-.44l.04-2.65c-.44.18-1.13.48-1.56.75-.44.3-.61.59-.61,1.13v.02Z"></path><path class="cls-4" d="M234.55,113.02l-.34.79-2.57.32c0,1.29-.02,3.07-.02,5.29,0,.5.1.69.2.81.2.16.57.3.93.3.73,0,1.27-.26,1.6-.52l.08.04v.69c-.44.75-1.5,1.33-2.75,1.33-1.07,0-1.86-.32-2.34-.91-.32-.42-.44-.87-.44-2.06v-4.97l-1.23-.34.3-.77h.99c.14-.51.71-2.04,1.05-2.42.42-.26,1.47-.48,1.72-.48l-.1,2.89h2.91Z"></path><path class="cls-4" d="M235.21,113.39c.3-.1,2.18-.53,3.66-.63v4.12c0,2.22.02,3.33.04,3.76l1.33.61-.12.57c-.93,0-1.7-.02-2.63-.02-.83,0-1.72.02-2.52.02l.1-.57,1.05-.61c.02-.69.04-2.24.04-3.8v-2.42l-1.11-.55.16-.48ZM237.59,108.42c.34.12,1.05.93,1.33,1.45l-.06.22c-.22.47-.99,1.23-1.37,1.45l-.2.06c-.47-.28-1.09-.97-1.33-1.45l.04-.22c.36-.57.97-1.19,1.41-1.47l.18-.04Z"></path><path class="cls-4" d="M246,112.76c2.89,0,4.79,1.9,4.79,4.55,0,2.87-2,4.75-4.83,4.75-2.57,0-4.81-1.7-4.81-4.59s2.36-4.71,4.83-4.71h.02ZM245.9,113.57c-1.31,0-1.76,2.08-1.76,3.56,0,1.72.53,4.12,2,4.12s1.66-2.36,1.66-3.7c0-1.56-.46-3.98-1.88-3.98h-.02Z"></path><path class="cls-4" d="M253.11,114.58l-.99-.5.18-.46c.32-.26,3.05-.89,3.54-.87l-.16,1.45.04.04c1.05-.81,2.1-1.49,2.95-1.49,2.18,0,2.83,1.7,2.83,3.13v4.42c0,.22.14.36.4.47l1.01.5-.14.55c-.91,0-1.78-.02-2.67-.02-.75,0-1.52.02-2.3.02l.1-.55.79-.63c.04-.59.1-1.94.1-4.44,0-1.19-.53-1.8-1.47-1.8-.47,0-.97.2-1.48.61,0,1.56,0,5.27.04,5.62l.97.63-.12.55c-.77-.02-1.54-.02-2.3-.02-.87,0-1.72.02-2.59.02l.14-.55,1.07-.63c.04-.26.06-2.18.06-4.44v-1.62Z"></path></g><g><path class="cls-4" d="M268.92,109.13c1.98-.16,3.47-.3,4.89-.3,2,0,3.35.24,4.36.85,1.27.77,1.72,1.94,1.72,3.17,0,3.23-3.05,4.1-4.83,4.1-.36,0-.67-.04-.89-.12l-.18-.61c1.88-.18,2.89-1.45,2.89-3.31,0-2.34-1.58-3.13-3.68-3.17v5.25c0,4.67.12,5.41.12,5.7l2.34.81-.14.55c-1.17,0-2.46-.02-3.7-.02-.99,0-2.06.02-3.05.02l.16-.53,1.39-.77c.08-.34.08-1.7.08-5.72v-4.83l-1.64-.52.18-.55Z"></path><path class="cls-4" d="M281.38,113.78c.3-.16,2.51-.75,3.39-.79.1.38.22,1.35.2,1.66h.06c.63-.95,1.56-1.66,2.53-1.66.53,0,.89.16,1.13.42-.04.57-.59,2.08-.99,2.75l-.34.1c-.22-.34-.44-.63-.85-1.45-.08-.06-.16-.08-.3-.08-.42,0-.95.44-1.19.95v5.17l1.98.63-.14.55c-1.09,0-2.18-.02-3.27-.02-.85,0-1.68.02-2.53.02l.06-.55,1.09-.63c.08-2.02.1-5.25.1-6.06l-1.07-.53.14-.47Z"></path><path class="cls-4" d="M294.31,112.99c2.89,0,4.79,1.9,4.79,4.55,0,2.87-2,4.75-4.83,4.75-2.57,0-4.81-1.7-4.81-4.59s2.36-4.71,4.83-4.71h.02ZM294.22,113.8c-1.31,0-1.76,2.08-1.76,3.56,0,1.72.53,4.12,2,4.12s1.66-2.36,1.66-3.7c0-1.56-.46-3.98-1.88-3.98h-.02Z"></path><path class="cls-4" d="M308.02,114.34v.04c.22.24.55.87.55,1.56,0,1.9-1.51,3.13-3.88,3.13-.73,0-1.43-.14-2.08-.48-.1.18-.26.44-.26.61,0,.42.46.91.83.97,1.35-.06,2.71-.14,4.77.02.61.04,1.05.3,1.47.75.3.36.51.95.51,1.43,0,1.09-.72,2.23-2.08,3.07-.58.36-.91.49-1.42.48-2.3-.04-5.92-.26-5.92-1.37,0-.36.22-.65.51-.97l1.33-1.17v-.04c-.57-.24-.91-.52-1.31-.99-.28-.34-.5-.95-.5-1.31,0-.4.93-1.35,1.53-1.76-.69-.48-1.15-1.23-1.15-2.2,0-1.9,1.88-3.13,4.06-3.13.65,0,1.13.08,1.6.16.57.1,1.03.2,1.7.28l1.74-.71.08.16-.81,1.39-1.29.08ZM304.61,122.61c-1.27,0-1.41.04-1.58.18-.16.14-.36.46-.36.81,0,1.05,1.09,1.86,2.5,1.86s2.55-.63,2.55-1.82c0-.36-.24-.79-.91-.93-.4-.08-.91-.1-2.18-.1h-.02ZM304.81,113.76c-1.03,0-1.27,1.41-1.27,2.26,0,.95.34,2.28,1.29,2.28s1.23-1.27,1.23-2.22c0-.75-.18-2.32-1.23-2.32h-.02Z"></path><path class="cls-4" d="M311.09,113.78c.3-.16,2.52-.75,3.39-.79.1.38.22,1.35.2,1.66h.06c.63-.95,1.56-1.66,2.53-1.66.54,0,.89.16,1.13.42-.04.57-.59,2.08-.99,2.75l-.34.1c-.22-.34-.44-.63-.85-1.45-.08-.06-.16-.08-.3-.08-.42,0-.95.44-1.19.95v5.17l1.98.63-.14.55c-1.09,0-2.18-.02-3.27-.02-.85,0-1.68.02-2.53.02l.06-.55,1.09-.63c.08-2.02.1-5.25.1-6.06l-1.07-.53.14-.47Z"></path><path class="cls-4" d="M324.26,116.1c.06-1.54-.89-1.96-1.62-1.96-.44,0-.79.12-1.01.2-.08.83-.26,1.98-.4,2.4l-.16.14c-.2-.02-1.41-.93-1.72-1.9.75-.63,1.96-1.31,2.91-1.66.52-.2.97-.32,1.39-.32,2.55,0,3.25,1.82,3.25,2.99,0,1.43-.02,3.15-.04,4.4.1.22.73.73,1.43.99l-.06.32c-.24.2-.91.57-1.8.57-1.35,0-1.94-.63-2.12-1.05h-.04c-1.05.77-1.62,1.09-2.32,1.09-1.7,0-2.61-1.39-2.61-2.51,0-.83.28-1.31.83-1.6.55-.38,2.83-1.13,4.08-1.49l.02-.59ZM322.06,119.37c0,1.09.79,1.43,1.33,1.43.28,0,.48-.08.67-.24.12-.1.14-.26.14-.44l.04-2.65c-.44.18-1.13.48-1.56.75-.44.3-.61.59-.61,1.13v.02Z"></path><path class="cls-4" d="M330.12,114.79l-.99-.48.18-.46c.32-.26,3.05-.89,3.54-.87l-.16,1.43.04.02c1.13-.77,2.04-1.45,3.11-1.45,1.19,0,1.94.77,2.24,1.52,1.19-.87,2.26-1.52,3.23-1.52,2.02,0,2.73,1.7,2.73,3.01v4.59c0,.18.16.26.44.44l.93.47-.14.55c-.85,0-1.7-.04-2.53-.04s-1.62.04-2.44.04l.12-.55.83-.69c.02-.55.08-1.94.08-4.26,0-1.52-.91-1.94-1.47-1.94-.63,0-1.07.26-1.58.65.1.32.16.81.16,1.33v4.22l1.05.67-.16.57c-.73,0-1.47-.04-2.22-.04-.85,0-1.68.04-2.53.04l.12-.55.97-.69c.04-.24.06-1.74.06-4.48,0-1.25-.79-1.66-1.51-1.66-.4,0-.85.14-1.37.52,0,1.5,0,5.37.04,5.62l.95.67-.14.57c-.75,0-1.52-.04-2.3-.04-.85,0-1.72.04-2.57.04l.12-.55,1.11-.69c.04-.24.06-1.7.06-4.38v-1.64Z"></path></g><g><path class="cls-4" d="M174.94,67.65c1.86,0,3.73.04,5.55.04s3.44-.04,5.15-.04l-.36,1.26-1.95,1.38v8.71h11.35v-8.79l-1.95-1.38.28-1.17c1.54,0,3.08.04,4.62.04,2.07,0,4.13-.04,6.2-.04l-.28,1.17-3.12,1.46v10.25c0,4.58.12,10.7.28,11.22l3.48,1.5-.28,1.13c-2.03,0-4.09-.04-6.12-.04-1.78,0-3.61.04-5.43.04l.36-1.17,1.91-1.42c.12-3.65.04-7.21.04-10.7-1.05.2-2.76.28-4.82.28h-6.52c0,2.96-.08,6.4.04,10.37l2.43,1.5-.32,1.13c-1.74,0-3.48-.04-5.23-.04-2.03,0-4.09.04-6.12.04l.32-1.13,2.88-1.46c.04-.89.24-6.56.24-11.55v-10.01l-3-1.46.36-1.13Z"></path><path class="cls-4" d="M216.6,82.2c.12-3.16-1.82-4.01-3.32-4.01-.89,0-1.62.24-2.07.41-.16,1.7-.53,4.05-.81,4.9l-.33.28c-.4-.04-2.88-1.9-3.52-3.89,1.54-1.3,4.01-2.67,5.96-3.4,1.05-.41,1.98-.65,2.84-.65,5.23,0,6.64,3.73,6.64,6.12,0,2.92-.04,6.44-.08,8.99.2.45,1.5,1.5,2.92,2.03l-.12.65c-.49.41-1.86,1.17-3.69,1.17-2.76,0-3.97-1.3-4.34-2.15h-.08c-2.15,1.58-3.32,2.23-4.74,2.23-3.48,0-5.35-2.84-5.35-5.15,0-1.7.57-2.67,1.7-3.28,1.13-.77,5.79-2.31,8.35-3.04l.04-1.22ZM212.1,88.88c0,2.23,1.62,2.92,2.71,2.92.57,0,.97-.16,1.38-.49.24-.2.28-.53.28-.89l.08-5.43c-.89.36-2.31.97-3.2,1.54-.89.61-1.26,1.22-1.26,2.31v.04Z"></path><path class="cls-4" d="M227.78,78.92c0-3.73-.04-7.13-.12-9.4l-2.39-1.13.32-.89c.81-.45,5.27-1.3,7.86-1.3-.08,3.24-.12,7.9-.12,11.55,1.22-.81,3.32-1.9,4.46-1.9,4.25,0,8.67,3.12,8.67,8.87,0,7.5-6,10.17-9.72,10.17-.93,0-2.63-.57-4.17-1.46-1.17.73-3.81,1.42-4.78,1.42v-15.92ZM233.34,92.04c.73.41,1.5.49,2.03.49,2.23,0,5.23-1.98,5.23-7.09,0-3.57-1.91-6.77-5.47-6.77-.81,0-1.34.28-1.78.41v12.97Z"></path><path class="cls-4" d="M249.18,77.13c.61-.2,4.46-1.09,7.49-1.3v8.43c0,4.54.04,6.81.08,7.7l2.71,1.26-.24,1.17c-1.9,0-3.48-.04-5.39-.04-1.7,0-3.52.04-5.15.04l.2-1.17,2.15-1.26c.04-1.42.08-4.58.08-7.78v-4.94l-2.27-1.13.33-.97ZM254.05,66.96c.69.24,2.15,1.9,2.71,2.96l-.12.45c-.45.97-2.03,2.51-2.8,2.96l-.4.12c-.97-.57-2.23-1.99-2.71-2.96l.08-.45c.73-1.17,1.99-2.43,2.88-3l.36-.08Z"></path><path class="cls-4" d="M274.63,76.36l-.69,1.62-5.27.65c0,2.63-.04,6.28-.04,10.82,0,1.01.2,1.42.4,1.66.41.32,1.18.61,1.9.61,1.5,0,2.59-.53,3.28-1.05l.16.08v1.42c-.89,1.54-3.08,2.71-5.63,2.71-2.19,0-3.81-.65-4.78-1.86-.65-.85-.89-1.78-.89-4.21v-10.17l-2.51-.69.61-1.58h2.03c.28-1.05,1.46-4.17,2.15-4.94.85-.53,3-.97,3.52-.97l-.2,5.92h5.96Z"></path><path class="cls-4" d="M286.26,82.2c.12-3.16-1.82-4.01-3.32-4.01-.89,0-1.62.24-2.07.41-.16,1.7-.53,4.05-.81,4.9l-.33.28c-.4-.04-2.88-1.9-3.52-3.89,1.54-1.3,4.01-2.67,5.96-3.4,1.05-.41,1.98-.65,2.84-.65,5.23,0,6.64,3.73,6.64,6.12,0,2.92-.04,6.44-.08,8.99.2.45,1.5,1.5,2.92,2.03l-.12.65c-.49.41-1.86,1.17-3.69,1.17-2.76,0-3.97-1.3-4.34-2.15h-.08c-2.15,1.58-3.32,2.23-4.74,2.23-3.48,0-5.35-2.84-5.35-5.15,0-1.7.57-2.67,1.7-3.28,1.13-.77,5.79-2.31,8.35-3.04l.04-1.22ZM281.76,88.88c0,2.23,1.62,2.92,2.71,2.92.57,0,.97-.16,1.38-.49.24-.2.28-.53.28-.89l.08-5.43c-.89.36-2.31.97-3.2,1.54-.89.61-1.26,1.22-1.26,2.31v.04Z"></path><path class="cls-4" d="M309.08,76.36l-.69,1.62-5.27.65c0,2.63-.04,6.28-.04,10.82,0,1.01.2,1.42.4,1.66.41.32,1.18.61,1.9.61,1.5,0,2.59-.53,3.28-1.05l.16.08v1.42c-.89,1.54-3.08,2.71-5.63,2.71-2.19,0-3.81-.65-4.78-1.86-.65-.85-.89-1.78-.89-4.21v-10.17l-2.51-.69.61-1.58h2.03c.28-1.05,1.46-4.17,2.15-4.94.85-.53,3-.97,3.52-.97l-.2,5.92h5.96Z"></path></g><g><path class="cls-4" d="M158.67,29.45c1.54-.16,7.66-.53,10.37-.53,7.33,0,11.18,1.78,11.18,6.08,0,3.97-3.56,5.79-7.01,6.24v.28c6.28.53,8.67,2.88,8.67,6.64,0,6.81-8.31,7.9-14.26,7.9-3.2,0-6.12-.04-9.4-.12l.28-1.13,2.71-1.46c.08-.69.24-3.52.24-9.08v-12.76l-3.12-1.01.32-1.05ZM167.22,40.96c3.44-.04,6.93-1.13,6.93-5.43,0-2.27-1.01-3.48-2.19-4.17-.85-.45-2.15-.73-3.85-.73h-.89v10.33ZM175.48,48.09c0-2.96-1.54-5.51-8.27-5.43v.61c0,3.69.04,8.79.16,11.18,3.61,0,5.55-.85,6.81-2.39,1.05-1.26,1.3-2.71,1.3-3.93v-.04Z"></path><path class="cls-4" d="M195.34,43.79c.12-3.16-1.82-4.01-3.32-4.01-.89,0-1.62.24-2.07.41-.16,1.7-.53,4.05-.81,4.9l-.32.28c-.41-.04-2.88-1.9-3.53-3.89,1.54-1.3,4.01-2.67,5.96-3.4,1.05-.41,1.98-.65,2.84-.65,5.23,0,6.64,3.73,6.64,6.12,0,2.92-.04,6.44-.08,8.99.2.45,1.5,1.5,2.92,2.03l-.12.65c-.49.41-1.86,1.17-3.69,1.17-2.76,0-3.97-1.3-4.34-2.15h-.08c-2.15,1.58-3.32,2.23-4.74,2.23-3.48,0-5.35-2.84-5.35-5.15,0-1.7.57-2.67,1.7-3.28,1.13-.77,5.79-2.31,8.35-3.04l.04-1.22ZM190.85,50.48c0,2.23,1.62,2.92,2.71,2.92.57,0,.97-.16,1.38-.49.24-.2.28-.53.28-.89l.08-5.43c-.89.36-2.31.97-3.2,1.54-.89.61-1.26,1.22-1.26,2.31v.04Z"></path><path class="cls-4" d="M205.07,47.32c0-6.73,5.79-9.89,10.98-9.89,2.88,0,4.9.93,5.75,1.58-.16.81-1.05,3.65-1.82,4.94l-.73.16c-.41-.69-1.17-2.76-1.7-4.78-.2-.12-.57-.2-1.01-.2-3.81,0-5.63,3.65-5.63,7.33,0,4.09,2.19,7.37,6.12,7.42.36,0,.69-.04,1.01-.2,1.22-.85,2.71-1.82,3.52-2.23l.41.85c-.36,1.01-1.99,3.08-2.71,3.48-.61.2-2.35.69-3.89.69-5.19,0-10.29-2.67-10.29-9.12v-.04Z"></path><path class="cls-4" d="M234.33,54.73l-.36,1.26c-1.7,0-3.4-.04-5.15-.04s-3.44.04-5.15.04l.16-1.13,2.19-1.3c.04-1.38.08-3.85.08-14.75,0-3.28,0-6.48-.08-7.9l-2.35-.97.32-1.05c2.27-.49,6.28-1.09,7.78-1.09-.08,3.65-.12,7.33-.12,11.63,0,8.87.04,12.07.08,14.18l2.59,1.13ZM244.78,56.6c-3.36,0-5.79-.57-7.33-2.11-1.38-1.38-3.81-5.06-5.27-7.86v-.28c1.26-1.5,4.05-4.82,5.15-6.4l.85-2.51c2.55,0,5.47.32,6.32.61l-.61,1.17c-.85.36-3.2,1.3-4.98,1.86-.53.49-1.62,1.66-2.15,2.27v.12c1.9,3.36,6.36,10.01,8.27,12.93l-.24.2Z"></path><path class="cls-4" d="M276.76,43.79c.12-3.16-1.82-4.01-3.32-4.01-.89,0-1.62.24-2.07.41-.16,1.7-.53,4.05-.81,4.9l-.32.28c-.41-.04-2.88-1.9-3.53-3.89,1.54-1.3,4.01-2.67,5.96-3.4,1.05-.41,1.98-.65,2.83-.65,5.23,0,6.65,3.73,6.65,6.12,0,2.92-.04,6.44-.08,8.99.2.45,1.5,1.5,2.92,2.03l-.12.65c-.49.41-1.86,1.17-3.69,1.17-2.75,0-3.97-1.3-4.33-2.15h-.08c-2.15,1.58-3.32,2.23-4.74,2.23-3.48,0-5.35-2.84-5.35-5.15,0-1.7.57-2.67,1.7-3.28,1.13-.77,5.79-2.31,8.35-3.04l.04-1.22ZM272.26,50.48c0,2.23,1.62,2.92,2.72,2.92.57,0,.97-.16,1.38-.49.24-.2.28-.53.28-.89l.08-5.43c-.89.36-2.31.97-3.2,1.54-.89.61-1.26,1.22-1.26,2.31v.04Z"></path><path class="cls-4" d="M286.85,39.05c.61-.32,5.15-1.54,6.93-1.62.2.77.45,2.76.4,3.4h.12c1.3-1.94,3.2-3.4,5.19-3.4,1.09,0,1.82.32,2.31.85-.08,1.18-1.22,4.25-2.03,5.63l-.69.2c-.45-.69-.89-1.3-1.74-2.96-.16-.12-.32-.16-.61-.16-.85,0-1.95.89-2.43,1.95v10.57l4.05,1.3-.28,1.13c-2.23,0-4.46-.04-6.68-.04-1.74,0-3.44.04-5.19.04l.12-1.13,2.23-1.3c.16-4.13.2-10.74.2-12.4l-2.19-1.09.28-.97Z"></path><path class="cls-4" d="M322.03,52.83c1.01,1.3,2.23,1.95,2.96,2.23l-.36.73c-.32.24-1.5.69-2.96.69-2.35,0-4.13-.77-4.86-2.11h-.04c-.73.41-2.75,2.11-4.9,2.11-3.77,0-8.47-2.92-8.47-8.91,0-6.93,6-10.13,10.25-10.13.69,0,1.78.41,2.8,1.01l.04-.04c0-2.27-.04-5.59-.12-7.29l-2.55-1.13.24-.89c1.99-.57,5.27-1.18,8.1-1.3-.08,3.08-.12,7.58-.12,11.99v13.05ZM316.48,40.19c-.49-.28-1.18-.45-1.78-.45-2.67,0-5.43,2.67-5.43,6.97,0,4.05,2.47,6.64,5.43,6.64.57,0,1.09-.12,1.78-.49v-12.68Z"></path><path class="cls-4" d="M259.17,37.92c.93,0,1.86.04,2.76.04,1.46,0,2.76-.04,3.93-.04l-.32,1.13c-.81.45-1.62.97-2.47,1.46-1.34,2.55-5.63,13.49-8.27,19.73-.65,2.67-.85,3.77-1.13,4.94-.24.12-.57.16-.93.16-1.74,0-3.48-1.34-3.81-2.07.28-.65,2.27-2.59,4.17-4.17.36-.73,1.01-2.03,1.3-2.84-.49-1.01-4.9-11.83-6.6-15.48-.24-.49-.65-.69-2.63-1.74l.32-1.13c1.7,0,3.4.04,5.15.04,1.46,0,2.92-.04,4.38-.04l-.2,1.13-1.05,1.13c.85,2.31,2.11,5.43,3.61,9.32h.08c.85-2.55,2.43-7.29,2.92-9.12l-1.58-1.38.41-1.09Z"></path></g><path class="cls-14" d="M207.21,179.53c2.36-.32,4.45.62,7.98-.91,3.23-1.4,9.37-4.55,9.78-2.21.4,2.34-6.26,4.21-7.28,9.27-.57,2.82-2.16,6.08-2.57,7.35-.9,2.83-3.93,4.46-3.89,5.1.06,1.05,3.28.02,6.19-.66,3.57-.83,4.22,1.04.77,7.56.37,1.82,5.22-1.79,6.85,3.5,1.04,3.35-3.78,10.15-3.28,9.59.42-.47,7.82-7.24,9.91-10.86,1.24-2.15,3.52-3.99,4.16-4.72,1.73-1.95,3.91,3.36,4.27.71.37-2.65.4-9.17,1.78-12.41,1.39-3.24,3.84-9.43,6.24-8.78,1.9.51,3.88,6.9,4.68,9.78,1.05,3.79,1.3,9.07,1.16,7.29,1.12,3.99-.68,6.93,1.27,8.66,1.94,1.73,1.6,10.74,1.6,10.74l3.99-7.78s2.94-2.96,5.57-3.12c2.62-.15,5.14,1.6,6.45,5.62.51,1.56,2.71,1.42,4.81,1.3,1.19-.07,2.99-.36,4.82.87,1.39.94,4.21,5.29,4.94,6.16,1.7,2-1.13-7.8-.2-9.96.93-2.16-1.62-4.94.72-5.35,2.34-.4,1.89-3.92.69-6.48-.45-.95-2.41-1.71-2.74-3.1-.57-2.36,1.87-4.17,3.28-4.26,2.47-.15,2.17-.79,1.58-1.59-.98-1.34-3.87-3.42-5.54-5.59-2.01-2.62-6.72-3.31-11.16-5.08-3.72-1.48-6.71-3.49-6.9-4.8-.25-1.65.76-1.98,2.5-2.44.39-.1,2.37-1.73,4.36-.96,4.19,1.61,17.65,6.94,20.87,5.21,2.23-1.19,1.59-3.28,4.15-4.48,2.56-1.2,3.07-.63,5.32-2.61,2.25-1.97,3.55-2.48,6.17-3.01,6.76-1.37-.28-1.58-2.69-2.22-2.4-.65-5.02-4.3-5.16-5.17-.42-2.65-3.29-1.66-6.22-2.28-2.93-.62-.61-4.38,2.49-7.12,3.44-3.04,4.08-3.5-1.41-2.92-5.49.58-9.25-2.18-13.07-.11-3.82,2.07-8.56,4.53-11.95,5-3.39.46-6.25-1.21-3.81-4.51,2.43-3.3,4.52-5.79,5.45-7.95.92-2.16-.99-3.36.43-6.08,1.42-2.71,2.18-4.8.39-3.91-1.79.9-.71,1.05-5.18,3.4-2.43,1.27-6.21,3.47-9.39,5.32-2.54,1.48-3.37,3.86-4.67,5.57-2.93,3.86-6.92,3.29-9.87,5.67-2.36,1.91-4.61,8.42-4.61,8.42l-1.54.8c-4.3-4.39-9.66-4.49-15.15.57-1.93,1.78-4.58,2.48-6.18,2.57-1.01.06-3.29.87-4.64,1.22-1.3.34-2.21,2.18-1.13,2.65,1.08.46-2.02,2.01-4.27,3.98-2.25,1.97-7.31,9.9-10.7,10.36,2.49.55,7.18-.46,9.59-.79Z"></path><path class="cls-11" d="M215.8,143.65c1.93.35,3.83,1.09,5.68,1.74,2.39.83,4.77,1.71,7.1,2.7,2.2.93,4.43,2,6.39,3.37,2.5,1.74,5.08,4.81,5.13,8.05.01.92,1.45,1.06,1.44.14-.05-3.07-1.94-6.14-4.17-8.13s-4.78-3.24-7.38-4.37-5.14-2.05-7.75-2.95c-2.05-.71-4.16-1.51-6.31-1.88-.86-.15-.97,1.19-.13,1.34h0Z"></path><path class="cls-9" d="M240.5,159.55c1.53.43,3.01,1,4.34,1.88s2.42,1.95,3.41,3.14c2.18,2.63,3.59,5.78,5.41,8.64,2.09,3.29,4.46,6.43,7.13,9.28,1.01,1.08,2.11,2,3.26,2.92,1.51,1.19,2.98,2.42,4.42,3.69,3.25,2.88,6.4,5.91,9.26,9.18.17.2.53-.07.37-.28-2.36-3.12-5.17-5.84-8.06-8.47-1.46-1.33-2.95-2.63-4.49-3.87-1.17-.94-2.42-1.83-3.48-2.91-2.84-2.89-5.31-6.14-7.5-9.55-1.86-2.9-3.31-6.05-5.45-8.76s-5.05-4.91-8.58-5.17c-.16-.01-.19.23-.04.28h0Z"></path><path class="cls-5" d="M240.46,159.49c2.63.65,4.99,1.93,6.91,3.85s3.35,4.23,4.66,6.6c1.57,2.82,3.32,5.56,5.27,8.13,1.58,2.07,3.28,4.11,5.23,5.84,3.93,3.49,8.13,6.65,11.79,10.44,3.91,4.05,6.74,8.82,8.94,13.98,1.04,2.45,1.92,4.95,2.72,7.49.49,1.56,1.03,3.17,1.29,4.8.05.3.5.17.45-.12-.6-3.71-1.76-7.31-3.13-10.8-2.01-5.12-4.6-10.09-8.24-14.24-3.71-4.22-8.14-7.67-12.39-11.31-4.38-3.75-7.79-8.56-10.67-13.52-1.54-2.65-2.97-5.36-5.17-7.55s-4.68-3.56-7.64-3.86c-.16-.02-.19.24-.04.28h0Z"></path><path class="cls-5" d="M240.05,159.36c.81,2.02.84,4.29.68,6.43-.14,1.85-.5,3.59-1.23,5.3-1.36,3.18-3.16,6.24-4.21,9.55-1.24,3.93-1.92,8.05-2.63,12.11-.34,1.94-.66,3.88-1.01,5.81-.24,1.3-.46,2.62-.84,3.89-.66,2.22-1.46,4.42-2.61,6.44-1.23,2.17-2.8,4.12-4.26,6.13-.15.2.19.46.35.27,1.44-1.74,2.89-3.53,4.09-5.45,1.1-1.76,1.91-3.66,2.59-5.61,1.11-3.18,1.57-6.5,2.14-9.81.72-4.21,1.41-8.46,2.59-12.58.98-3.45,2.79-6.6,4.22-9.88.33-.75.67-1.52.9-2.31.31-1.07.46-2.21.55-3.32.2-2.27.26-5.09-.98-7.11-.1-.17-.42-.06-.34.14h0Z"></path><path class="cls-5" d="M240.96,159.6c.73.15,1.44.42,2.16.64,1.32.41,2.66.77,4.01,1.08,3.16.72,6.35,1.11,9.6,1.07,4.43-.05,8.87.04,13.3.21,1.77.07,3.58.09,5.32.4,2.63.47,5.2,1.23,7.78,1.89s5.14,1.39,7.76,1.66c1.97.2,3.99.09,5.96.03,2.93-.1,5.86-.26,8.8-.34,2.37-.06,4.82-.2,7.17.18.25.04.37-.33.11-.39-1.96-.43-4.05-.41-6.05-.39-2.62.02-5.23.13-7.85.24-2.26.09-4.53.2-6.8.14s-4.55-.63-6.77-1.17c-2.8-.68-5.58-1.47-8.4-2.11-1.71-.39-3.4-.56-5.16-.65-4.63-.24-9.27-.28-13.9-.26-3.24.02-6.39-.11-9.59-.72-1.61-.31-3.21-.71-4.8-1.12-.85-.22-1.71-.51-2.58-.65-.17-.03-.24.22-.07.26h0Z"></path><path class="cls-5" d="M240.08,158.96c-.45.29-.79.83-1.09,1.25-.54.74-1.07,1.49-1.63,2.22-1.34,1.75-3.07,3.21-4.82,4.52-2.37,1.77-4.95,3.48-7.63,4.76-2.03.98-4.29,1.6-6.43,2.3-3.18,1.05-6.37,2.05-9.56,3.07-2.56.82-5.13,1.64-7.68,2.51-.17.06-.1.33.08.28,5.5-1.52,10.94-3.26,16.36-5.04,2.36-.77,4.76-1.51,7.05-2.47.74-.31,1.44-.73,2.14-1.13,1.61-.91,3.18-1.88,4.7-2.93,2.01-1.4,3.95-2.96,5.55-4.82.63-.73,1.17-1.52,1.7-2.32.44-.65.83-1.51,1.38-2.06.08-.08-.02-.22-.12-.15h0Z"></path><path class="cls-5" d="M241.25,159.09c.6.39,1.79.07,2.42-.08,1.68-.39,3.33-1,4.93-1.64,3.78-1.49,7.59-3.26,10.9-5.64,2.05-1.47,3.44-3.67,4.82-5.75,2.01-3.02,3.92-6.1,5.91-9.12.99-1.49,1.99-2.98,3.1-4.39.6-.76,1.37-1.92,2.32-2.28.07-.02.04-.13-.03-.11-.75.28-1.36.94-1.88,1.51-.94,1.03-1.76,2.16-2.58,3.28-2.08,2.88-4.01,5.86-5.98,8.81-.89,1.34-1.79,2.68-2.72,3.99-.66.93-1.33,1.89-2.14,2.69-1.15,1.13-2.68,1.98-4.07,2.77-1.82,1.04-3.71,1.97-5.62,2.82s-3.95,1.68-5.98,2.34c-.68.22-1.38.42-2.07.6-.38.1-.92.31-1.3.13-.03-.01-.05.02-.02.04h0Z"></path><path class="cls-5" d="M270.28,189.97c.64-.02,1.26-.19,1.88-.33,1.55-.34,3.11-.62,4.68-.8,1.79-.21,3.61-.31,5.4-.14s3.78.74,5.48,1.52c.94.43,1.79,1.1,2.79,1.42.14.05.19-.17.06-.22-.9-.34-1.66-.98-2.52-1.41-1.6-.81-3.42-1.36-5.19-1.61-3.38-.48-6.9.07-10.2.8-.8.18-1.68.32-2.39.73-.01,0,0,.03,0,.03h0Z"></path><path class="cls-5" d="M237.24,176.78c-.41.32-.99.46-1.47.64-.77.29-1.54.6-2.28.97-2.45,1.23-4.52,3.07-6.22,5.21-2.78,3.49-5.75,6.84-9.03,9.86-1.76,1.62-3.68,3.34-5.92,4.27-.12.05-.07.24.05.2,1.86-.69,3.48-1.99,4.98-3.26,1.94-1.64,3.73-3.46,5.45-5.32,1.45-1.57,2.85-3.17,4.18-4.84,1.75-2.18,3.65-4.16,6.12-5.53.9-.5,1.84-.9,2.8-1.26.53-.2,1.12-.36,1.57-.71.16-.13-.07-.35-.23-.23h0Z"></path><path class="cls-5" d="M266.38,187.37c-4.31,2.48-3.88,8.46-4.56,12.69-.17,1.03-.2,2.08-.4,3.1-.15.76-.35,1.51-.56,2.25-.57,2.01-1.21,3.99-1.86,5.97-.57,1.72-1.15,3.44-1.71,5.16-.04.13.15.18.2.05,1.21-3.32,2.42-6.64,3.44-10.03.43-1.42.92-2.89,1.02-4.38s.46-3.07.59-4.62c.09-1.09.22-2.19.4-3.28.42-2.54,1.27-5.24,3.63-6.61.2-.12.02-.44-.19-.32h0Z"></path><path class="cls-5" d="M274.81,162.17c.45-3.58,5.21-4.59,8.08-5.24,1.8-.41,3.5-1.25,5.11-2.12,1.92-1.04,3.76-2.2,5.61-3.36s3.74-2.37,5.74-3.33c.14-.07.02-.27-.12-.21-3.94,1.71-7.41,4.39-11.16,6.46-1.74.96-3.56,1.86-5.51,2.28-1.65.35-3.29.8-4.8,1.57-1.6.82-3.05,2.08-3.28,3.96-.03.22.32.22.35,0h0Z"></path><path class="cls-5" d="M275.92,196.28c-1.36.74-1.45,2.71-1.3,4.05s.59,2.72.52,4.13c-.14,2.97-.74,5.96-1.37,8.86-.03.14.18.2.22.06.73-2.72,1.23-5.58,1.44-8.39.09-1.25-.09-2.31-.33-3.53-.16-.86-.3-1.74-.22-2.62.09-1.03.59-1.65,1.12-2.49.03-.04-.03-.09-.07-.07h0Z"></path><path class="cls-5" d="M282.68,156.9c1.16.22,2.2.73,3.25,1.26s2.01.94,3.1,1.26c2.17.63,4.47,1.1,6.74.88.13-.01.13-.21,0-.2-2.33.1-4.64-.38-6.87-1.02s-3.97-2-6.16-2.39c-.14-.03-.2.19-.06.22h0Z"></path><path class="cls-5" d="M273.54,162.29c.13.02.36-.06.43-.04.16.04.36.25.53.32.62.26,1.3.4,1.95.53,1.72.35,2.96,1.2,4.19,2.43,1.43,1.42,2.61,3.09,4.13,4.42s3.16,2.48,4.91,3.51c1.88,1.11,3.85,1.94,5.97,2.47.17.04.23-.2.07-.26-3.66-1.19-7.02-3.01-10-5.46-.75-.62-1.47-1.27-2.11-2s-1.23-1.55-1.95-2.23c-1.1-1.04-2.13-2.17-3.57-2.73-.67-.26-1.35-.34-2.04-.47-.6-.11-1.59-.2-2.03-.67-.02-.02-.06-.03-.08-.01-.12.09-.25.15-.4.19,0,0,0,0,0,0h0Z"></path><path class="cls-5" d="M235.08,182.53c-.26.89-.79,1.61-.99,2.54-.18.83-.15,1.68,0,2.51.32,1.85,1.11,3.48,2.23,4.96s2.16,2.96,2.78,4.73c.66,1.89.85,3.91.91,5.91,0,.17.25.17.26,0,.16-3.68-.75-7.12-2.99-10.07-1.16-1.53-2.16-2.96-2.67-4.85-.28-1.04-.42-2.16-.22-3.23.16-.86.6-1.64.73-2.5,0-.02-.03-.04-.04-.01h0Z"></path><text class="cls-24" transform="translate(298.59 202.84)"><tspan x="0" y="0">TM</tspan></text></svg> 